<?xml version="1.0" encoding="utf-8" standalone="no"?><!DOCTYPE svg PUBLIC "-//W3C//DTD SVG 1.1//EN" "http://www.w3.org/Graphics/SVG/1.1/DTD/svg11.dtd">
<svg preserveAspectRatio="xMinYMin meet" width="100%" height="100%" viewBox="0 0 791.000 390.000"  version="1.1" xmlns="http://www.w3.org/2000/svg" xmlns:xlink="http://www.w3.org/1999/xlink">
  <desc>Matlab Figure Converted by PLOT2SVG written by Juerg Schwizer</desc>
  <g id="topgroup">
  <rect x="0" y="0" width="791.000" height="390.000" fill="#ffffff" stroke="none" />
  <g id ="ID000000">
  <clipPath id="ID000001">
    <rect x="102.830" y="29.250" width="613.025" height="317.850"/>
  </clipPath>
      <polygon fill="#ffffff" fill-opacity="1.00" stroke="none" stroke-width="0.5pt" stroke-opacity="1.00" stroke-dasharray="none" points="102.830,347.100 715.855,347.100 715.855,29.250 102.830,29.250 "/>
      <polygon fill="#ffffff" fill-opacity="1.00" stroke="none" stroke-width="0.5pt" stroke-opacity="1.00" stroke-dasharray="none" points="102.830,347.100 715.855,347.100 715.855,347.100 102.830,347.100 "/>
      <polygon fill="#ffffff" fill-opacity="1.00" stroke="none" stroke-width="0.5pt" stroke-opacity="1.00" stroke-dasharray="none" points="102.830,347.100 102.830,347.100 102.830,29.250 102.830,29.250 "/>
    <g>
<g id="ID000002" clip-path="url(#ID000001)" >
      <polyline fill="none" stroke="#000000" stroke-width="0.5pt" stroke-dasharray="none" points="102.830,68.981 103.443,72.458 104.056,75.828 104.669,78.986 105.282,81.835 105.895,84.288 106.508,86.268 107.121,87.714 107.734,88.582 108.347,88.845 108.960,88.495 109.573,87.542 110.186,86.017 110.799,83.965 111.412,81.451 112.025,78.552 112.638,75.357 113.251,71.966 113.864,68.482 114.477,65.014 115.091,61.668 115.704,58.548 116.317,55.751 116.930,53.361 117.543,51.454 118.156,50.088 118.769,49.305 119.382,49.130 119.995,49.567 120.608,50.604 121.221,52.208 121.834,54.330 122.447,56.904 123.060,59.851 123.673,63.080 124.286,66.491 124.899,67.983 125.512,64.526 126.125,61.206 126.738,58.127 127.351,55.382 127.964,53.058 128.577,51.225 129.190,49.940 129.803,49.243 130.416,49.155 131.029,49.679 131.642,50.799 132.255,52.481 132.868,54.672 133.481,57.305 134.094,60.298 134.707,63.559 135.320,66.988 135.933,70.478 136.546,73.922 137.159,77.213 137.772,80.250 138.385,82.940 138.998,85.198 139.611,86.956 140.225,88.159 140.838,88.770 141.451,88.770 142.064,88.159 142.677,86.956 143.290,85.198 143.903,82.940 144.516,80.250 145.129,77.213 145.742,73.922 146.355,70.478 146.968,66.988 147.581,63.559 148.194,60.298 148.807,57.305 149.420,54.672 150.033,52.481 150.646,50.799 151.259,49.679 151.872,49.155 152.485,49.243 153.098,49.940 153.711,51.225 154.324,53.058 154.937,55.382 155.550,58.127 156.163,61.206 156.776,64.526 157.389,67.983 158.002,71.471 158.615,74.882 159.228,78.111 159.841,81.058 160.454,83.632 161.067,85.754 161.680,87.358 162.293,88.395 162.906,88.833 163.519,88.657 164.132,87.875 164.746,86.509 165.359,84.601 165.972,82.212 166.585,79.414 167.198,76.294 167.811,72.949 168.424,69.480 169.037,71.966 169.650,75.357 170.263,78.552 170.876,81.451 171.489,83.965 172.102,86.017 172.715,87.542 173.328,88.495 173.941,88.845 174.554,88.582 175.167,87.714 175.780,86.268 176.393,84.288 177.006,81.835 177.619,78.986 178.232,75.828 178.845,72.458 179.458,68.981 180.071,65.504 180.684,62.135 181.297,58.976 181.910,56.127 182.523,53.675 183.136,51.695 183.749,50.248 184.362,49.380 184.975,49.117 185.588,49.467 186.201,50.420 186.814,51.946 187.427,53.998 188.040,56.512 188.654,59.411 189.267,62.606 189.880,65.997 190.493,68.482 191.106,65.014 191.719,61.668 192.332,58.548 192.945,55.751 193.558,53.361 194.171,51.454 194.784,50.088 195.397,49.305 196.010,49.130 196.623,49.567 197.236,50.604 197.849,52.208 198.462,54.330 199.075,56.904 199.688,59.851 200.301,63.080 200.914,66.491 201.527,69.979 202.140,73.437 202.753,76.756 203.366,79.836 203.979,82.580 204.592,84.905 205.205,86.738 205.818,88.023 206.431,88.720 207.044,88.808 207.657,88.283 208.270,87.163 208.883,85.482 209.496,83.291 210.109,80.658 210.722,77.665 211.335,74.404 211.948,70.975 212.561,70.478 213.174,73.922 213.788,77.213 214.401,80.250 215.014,82.940 215.627,85.198 216.240,86.956 216.853,88.159 217.466,88.770 218.079,88.770 218.692,88.159 219.305,86.956 219.918,85.198 220.531,82.940 221.144,80.250 221.757,77.213 222.370,73.922 222.983,70.478 223.596,66.988 224.209,63.559 224.822,60.298 225.435,57.305 226.048,54.672 226.661,52.481 227.274,50.799 227.887,49.679 228.500,49.155 229.113,49.243 229.726,49.940 230.339,51.225 230.952,53.058 231.565,55.382 232.178,58.127 232.791,61.206 233.404,64.526 234.017,67.983 234.630,71.471 235.243,74.882 235.856,78.111 236.469,81.058 237.082,83.632 237.695,85.754 238.309,87.358 238.922,88.395 239.535,88.833 240.148,88.657 240.761,87.875 241.374,86.509 241.987,84.601 242.600,82.212 243.213,79.414 243.826,76.294 244.439,72.949 245.052,69.480 245.665,65.997 246.278,62.606 246.891,59.411 247.504,56.512 248.117,53.998 248.730,51.946 249.343,50.420 249.956,49.467 250.569,49.117 251.182,49.380 251.795,50.248 252.408,51.695 253.021,53.675 253.634,56.127 254.247,58.976 254.860,62.135 255.473,65.504 256.086,68.981 256.699,65.504 257.312,62.135 257.925,58.976 258.538,56.127 259.151,53.675 259.764,51.695 260.377,50.248 260.990,49.380 261.603,49.117 262.216,49.467 262.830,50.420 263.443,51.946 264.056,53.998 264.669,56.512 265.282,59.411 265.895,62.606 266.508,65.997 267.121,69.480 267.734,72.949 268.347,76.294 268.960,79.414 269.573,82.212 270.186,84.601 270.799,86.509 271.412,87.875 272.025,88.657 272.638,88.833 273.251,88.395 273.864,87.358 274.477,85.754 275.090,83.632 275.703,81.058 276.316,78.111 276.929,74.882 277.542,71.471 278.155,69.979 278.768,73.437 279.381,76.756 279.994,79.836 280.607,82.580 281.220,84.905 281.833,86.738 282.446,88.023 283.059,88.720 283.672,88.808 284.285,88.283 284.898,87.163 285.511,85.482 286.124,83.291 286.738,80.658 287.351,77.665 287.964,74.404 288.577,70.975 289.190,67.485 289.803,64.041 290.416,60.749 291.029,57.712 291.642,55.023 292.255,52.764 292.868,51.006 293.481,49.803 294.094,49.192 294.707,49.192 295.320,49.803 295.933,51.006 296.546,52.764 297.159,55.023 297.772,57.712 298.385,60.749 298.998,64.041 299.611,67.485 300.224,70.975 300.837,74.404 301.450,77.665 302.063,80.658 302.676,83.291 303.289,85.482 303.902,87.163 304.515,88.283 305.128,88.808 305.741,88.720 306.354,88.023 306.967,86.738 307.580,84.905 308.193,82.580 308.806,79.836 309.419,76.756 310.032,73.437 310.645,69.979 311.259,66.491 311.872,63.080 312.485,59.851 313.098,56.904 313.711,54.330 314.324,52.208 314.937,50.604 315.550,49.567 316.163,49.130 316.776,49.305 317.389,50.088 318.002,51.454 318.615,53.361 319.228,55.751 319.841,58.548 320.454,61.668 321.067,65.014 321.680,68.482 322.293,65.997 322.906,62.606 323.519,59.411 324.132,56.512 324.745,53.998 325.358,51.946 325.971,50.420 326.584,49.467 327.197,49.117 327.810,49.380 328.423,50.248 329.036,51.695 329.649,53.675 330.262,56.127 330.875,58.976 331.488,62.135 332.101,65.504 332.714,68.981 333.327,72.458 333.940,75.828 334.553,78.986 335.166,81.835 335.780,84.288 336.393,86.268 337.006,87.714 337.619,88.582 338.232,88.845 338.845,88.495 339.458,87.542 340.071,86.017 340.684,83.965 341.297,81.451 341.910,78.552 342.523,75.357 343.136,71.966 343.749,69.480 344.362,72.949 344.975,76.294 345.588,79.414 346.201,82.212 346.814,84.601 347.427,86.509 348.040,87.875 348.653,88.657 349.266,88.833 349.879,88.395 350.492,87.358 351.105,85.754 351.718,83.632 352.331,81.058 352.944,78.111 353.557,74.882 354.170,71.471 354.783,67.983 355.396,64.526 356.009,61.206 356.622,58.127 357.235,55.382 357.848,53.058 358.461,51.225 359.074,49.940 359.687,49.243 360.300,49.155 360.914,49.679 361.527,50.799 362.140,52.481 362.753,54.672 363.366,57.305 363.979,60.298 364.592,63.559 365.205,66.988 365.818,67.485 366.431,64.041 367.044,60.749 367.657,57.712 368.270,55.023 368.883,52.764 369.496,51.006 370.109,49.803 370.722,49.192 371.335,49.192 371.948,49.803 372.561,51.006 373.174,52.764 373.787,55.023 374.400,57.712 375.013,60.749 375.626,64.041 376.239,67.485 376.852,70.975 377.465,74.404 378.078,77.665 378.691,80.658 379.304,83.291 379.917,85.482 380.530,87.163 381.143,88.283 381.756,88.808 382.369,88.720 382.982,88.023 383.595,86.738 384.208,84.905 384.822,82.580 385.435,79.836 386.048,76.756 386.661,73.437 387.274,69.979 387.887,66.491 388.500,63.080 389.113,59.851 389.726,56.904 390.339,54.330 390.952,52.208 391.565,50.604 392.178,49.567 392.791,49.130 393.404,49.305 394.017,50.088 394.630,51.454 395.243,53.361 395.856,55.751 396.469,58.548 397.082,61.668 397.695,65.014 398.308,68.482 398.921,71.966 399.534,75.357 400.147,78.552 400.760,81.451 401.373,83.965 401.986,86.017 402.599,87.542 403.212,88.495 403.825,88.845 404.438,88.582 405.051,87.714 405.664,86.268 406.277,84.288 406.890,81.835 407.503,78.986 408.116,75.828 408.729,72.458 409.343,68.981 409.956,72.458 410.569,75.828 411.182,78.986 411.795,81.835 412.408,84.288 413.021,86.268 413.634,87.714 414.247,88.582 414.860,88.845 415.473,88.495 416.086,87.542 416.699,86.017 417.312,83.965 417.925,81.451 418.538,78.552 419.151,75.357 419.764,71.966 420.377,68.482 420.990,65.014 421.603,61.668 422.216,58.548 422.829,55.751 423.442,53.361 424.055,51.454 424.668,50.088 425.281,49.305 425.894,49.130 426.507,49.567 427.120,50.604 427.733,52.208 428.346,54.330 428.959,56.904 429.572,59.851 430.185,63.080 430.798,66.491 431.411,67.983 432.024,64.526 432.637,61.206 433.250,58.127 433.863,55.382 434.477,53.058 435.090,51.225 435.703,49.940 436.316,49.243 436.929,49.155 437.542,49.679 438.155,50.799 438.768,52.481 439.381,54.672 439.994,57.305 440.607,60.298 441.220,63.559 441.833,66.988 442.446,70.478 443.059,73.922 443.672,77.213 444.285,80.250 444.898,82.940 445.511,85.198 446.124,86.956 446.737,88.159 447.350,88.770 447.963,88.770 448.576,88.159 449.189,86.956 449.802,85.198 450.415,82.940 451.028,80.250 451.641,77.213 452.254,73.922 452.867,70.478 453.480,66.988 454.093,63.559 454.706,60.298 455.319,57.305 455.932,54.672 456.545,52.481 457.158,50.799 457.771,49.679 458.384,49.155 458.998,49.243 459.611,49.940 460.224,51.225 460.837,53.058 461.450,55.382 462.063,58.127 462.676,61.206 463.289,64.526 463.902,67.983 464.515,71.471 465.128,74.882 465.741,78.111 466.354,81.058 466.967,83.632 467.580,85.754 468.193,87.358 468.806,88.395 469.419,88.833 470.032,88.657 470.645,87.875 471.258,86.509 471.871,84.601 472.484,82.212 473.097,79.414 473.710,76.294 474.323,72.949 474.936,69.480 475.549,71.966 476.162,75.357 476.775,78.552 477.388,81.451 478.001,83.965 478.614,86.017 479.227,87.542 479.840,88.495 480.453,88.845 481.066,88.582 481.679,87.714 482.292,86.268 482.906,84.288 483.519,81.835 484.132,78.986 484.745,75.828 485.358,72.458 485.971,68.981 486.584,65.504 487.197,62.135 487.810,58.976 488.423,56.127 489.036,53.675 489.649,51.695 490.262,50.248 490.875,49.380 491.488,49.117 492.101,49.467 492.714,50.420 493.327,51.946 493.940,53.998 494.553,56.512 495.166,59.411 495.779,62.606 496.392,65.997 497.005,68.482 497.618,65.014 498.231,61.668 498.844,58.548 499.457,55.751 500.070,53.361 500.683,51.454 501.296,50.088 501.909,49.305 502.522,49.130 503.135,49.567 503.748,50.604 504.361,52.208 504.974,54.330 505.587,56.904 506.200,59.851 506.813,63.080 507.427,66.491 508.040,69.979 508.653,73.437 509.266,76.756 509.879,79.836 510.492,82.580 511.105,84.905 511.718,86.738 512.331,88.023 512.944,88.720 513.557,88.808 514.170,88.283 514.783,87.163 515.396,85.482 516.009,83.291 516.622,80.658 517.235,77.665 517.848,74.404 518.461,70.975 519.074,70.478 519.687,73.922 520.300,77.213 520.913,80.250 521.526,82.940 522.139,85.198 522.752,86.956 523.365,88.159 523.978,88.770 524.591,88.770 525.204,88.159 525.817,86.956 526.430,85.198 527.043,82.940 527.656,80.250 528.269,77.213 528.882,73.922 529.495,70.478 530.108,66.988 530.721,63.559 531.334,60.298 531.947,57.305 532.561,54.672 533.174,52.481 533.787,50.799 534.400,49.679 535.013,49.155 535.626,49.243 536.239,49.940 536.852,51.225 537.465,53.058 538.078,55.382 538.691,58.127 539.304,61.206 539.917,64.526 540.530,67.983 541.143,71.471 541.756,74.882 542.369,78.111 542.982,81.058 543.595,83.632 544.208,85.754 544.821,87.358 545.434,88.395 546.047,88.833 546.660,88.657 547.273,87.875 547.886,86.509 548.499,84.601 549.112,82.212 549.725,79.414 550.338,76.294 550.951,72.949 551.564,69.480 552.177,65.997 552.790,62.606 553.403,59.411 554.016,56.512 554.629,53.998 555.242,51.946 555.855,50.420 556.469,49.467 557.082,49.117 557.695,49.380 558.308,50.248 558.921,51.695 559.534,53.675 560.147,56.127 560.760,58.976 561.373,62.135 561.986,65.504 562.599,68.981 563.212,65.504 563.825,62.135 564.438,58.976 565.051,56.127 565.664,53.675 566.277,51.695 566.890,50.248 567.503,49.380 568.116,49.117 568.729,49.467 569.342,50.420 569.955,51.946 570.568,53.998 571.181,56.512 571.794,59.411 572.407,62.606 573.020,65.997 573.633,69.480 574.246,72.949 574.859,76.294 575.472,79.414 576.085,82.212 576.698,84.601 577.311,86.509 577.924,87.875 578.537,88.657 579.150,88.833 579.763,88.395 580.376,87.358 580.990,85.754 581.603,83.632 582.216,81.058 582.829,78.111 583.442,74.882 584.055,71.471 584.668,69.979 585.281,73.437 585.894,76.756 586.507,79.836 587.120,82.580 587.733,84.905 588.346,86.738 588.959,88.023 589.572,88.720 590.185,88.808 590.798,88.283 591.411,87.163 592.024,85.482 592.637,83.291 593.250,80.658 593.863,77.665 594.476,74.404 595.089,70.975 595.702,67.485 596.315,64.041 596.928,60.749 597.541,57.712 598.154,55.023 598.767,52.764 599.380,51.006 599.993,49.803 600.606,49.192 601.219,49.192 601.832,49.803 602.445,51.006 603.058,52.764 603.671,55.023 604.284,57.712 604.897,60.749 605.510,64.041 606.124,67.485 606.737,70.975 607.350,74.404 607.963,77.665 608.576,80.658 609.189,83.291 609.802,85.482 610.415,87.163 611.028,88.283 611.641,88.808 612.254,88.720 612.867,88.023 613.480,86.738 614.093,84.905 614.706,82.580 615.319,79.836 615.932,76.756 616.545,73.437 617.158,69.979 617.771,66.491 618.384,63.080 618.997,59.851 619.610,56.904 620.223,54.330 620.836,52.208 621.449,50.604 622.062,49.567 622.675,49.130 623.288,49.305 623.901,50.088 624.514,51.454 625.127,53.361 625.740,55.751 626.353,58.548 626.966,61.668 627.579,65.014 628.192,68.482 628.805,65.997 629.418,62.606 630.031,59.411 630.645,56.512 631.258,53.998 631.871,51.946 632.484,50.420 633.097,49.467 633.710,49.117 634.323,49.380 634.936,50.248 635.549,51.695 636.162,53.675 636.775,56.127 637.388,58.976 638.001,62.135 638.614,65.504 639.227,68.981 639.840,72.458 640.453,75.828 641.066,78.986 641.679,81.835 642.292,84.288 642.905,86.268 643.518,87.714 644.131,88.582 644.744,88.845 645.357,88.495 645.970,87.542 646.583,86.017 647.196,83.965 647.809,81.451 648.422,78.552 649.035,75.357 649.648,71.966 650.261,69.480 650.874,72.949 651.487,76.294 652.100,79.414 652.713,82.212 653.326,84.601 653.939,86.509 654.553,87.875 655.166,88.657 655.779,88.833 656.392,88.395 657.005,87.358 657.618,85.754 658.231,83.632 658.844,81.058 659.457,78.111 660.070,74.882 660.683,71.471 661.296,67.983 661.909,64.526 662.522,61.206 663.135,58.127 663.748,55.382 664.361,53.058 664.974,51.225 665.587,49.940 666.200,49.243 666.813,49.155 667.426,49.679 668.039,50.799 668.652,52.481 669.265,54.672 669.878,57.305 670.491,60.298 671.104,63.559 671.717,66.988 672.330,67.485 672.943,64.041 673.556,60.749 674.169,57.712 674.782,55.023 675.395,52.764 676.008,51.006 676.621,49.803 677.234,49.192 677.847,49.192 678.460,49.803 679.073,51.006 679.687,52.764 680.300,55.023 680.913,57.712 681.526,60.749 682.139,64.041 682.752,67.485 683.365,70.975 683.978,74.404 684.591,77.665 685.204,80.658 685.817,83.291 686.430,85.482 687.043,87.163 687.656,88.283 688.269,88.808 688.882,88.720 689.495,88.023 690.108,86.738 690.721,84.905 691.334,82.580 691.947,79.836 692.560,76.756 693.173,73.437 693.786,69.979 694.399,66.491 695.012,63.080 695.625,59.851 696.238,56.904 696.851,54.330 697.464,52.208 698.077,50.604 698.690,49.567 699.303,49.130 699.916,49.305 700.529,50.088 701.142,51.454 701.755,53.361 702.368,55.751 702.981,58.548 703.594,61.668 704.208,65.014 704.821,68.482 705.434,71.966 706.047,75.357 706.660,78.552 707.273,81.451 707.886,83.965 708.499,86.017 709.112,87.542 709.725,88.495 710.338,88.845 710.951,88.582 711.564,87.714 712.177,86.268 712.790,84.288 713.403,81.835 714.016,78.986 714.629,75.828 715.242,72.458 715.855,68.981 "/>
<g>
</g>
</g>
<g id="ID000003" clip-path="url(#ID000001)" >
      <polyline fill="none" stroke="#000000" stroke-width="0.5pt" stroke-dasharray="none" points="102.830,148.444 103.443,148.444 104.056,148.444 104.669,148.444 105.282,148.444 105.895,148.444 106.508,148.444 107.121,148.444 107.734,148.444 108.347,148.444 108.960,148.444 109.573,148.444 110.186,148.444 110.799,148.444 111.412,148.444 112.025,148.444 112.638,148.444 113.251,148.444 113.864,148.444 114.477,148.444 115.091,148.444 115.704,148.444 116.317,148.444 116.930,148.444 117.543,148.444 118.156,148.444 118.769,148.444 119.382,148.444 119.995,148.444 120.608,148.444 121.221,148.444 121.834,148.444 122.447,148.444 123.060,148.444 123.673,148.444 124.286,148.444 124.899,108.713 125.512,108.713 126.125,108.713 126.738,108.713 127.351,108.713 127.964,108.713 128.577,108.713 129.190,108.713 129.803,108.713 130.416,108.713 131.029,108.713 131.642,108.713 132.255,108.713 132.868,108.713 133.481,108.713 134.094,108.713 134.707,108.713 135.320,108.713 135.933,108.713 136.546,108.713 137.159,108.713 137.772,108.713 138.385,108.713 138.998,108.713 139.611,108.713 140.225,108.713 140.838,108.713 141.451,108.713 142.064,108.713 142.677,108.713 143.290,108.713 143.903,108.713 144.516,108.713 145.129,108.713 145.742,108.713 146.355,108.713 146.968,108.713 147.581,108.713 148.194,108.713 148.807,108.713 149.420,108.713 150.033,108.713 150.646,108.713 151.259,108.713 151.872,108.713 152.485,108.713 153.098,108.713 153.711,108.713 154.324,108.713 154.937,108.713 155.550,108.713 156.163,108.713 156.776,108.713 157.389,108.713 158.002,108.713 158.615,108.713 159.228,108.713 159.841,108.713 160.454,108.713 161.067,108.713 161.680,108.713 162.293,108.713 162.906,108.713 163.519,108.713 164.132,108.713 164.746,108.713 165.359,108.713 165.972,108.713 166.585,108.713 167.198,108.713 167.811,108.713 168.424,108.713 169.037,148.444 169.650,148.444 170.263,148.444 170.876,148.444 171.489,148.444 172.102,148.444 172.715,148.444 173.328,148.444 173.941,148.444 174.554,148.444 175.167,148.444 175.780,148.444 176.393,148.444 177.006,148.444 177.619,148.444 178.232,148.444 178.845,148.444 179.458,148.444 180.071,148.444 180.684,148.444 181.297,148.444 181.910,148.444 182.523,148.444 183.136,148.444 183.749,148.444 184.362,148.444 184.975,148.444 185.588,148.444 186.201,148.444 186.814,148.444 187.427,148.444 188.040,148.444 188.654,148.444 189.267,148.444 189.880,148.444 190.493,108.713 191.106,108.713 191.719,108.713 192.332,108.713 192.945,108.713 193.558,108.713 194.171,108.713 194.784,108.713 195.397,108.713 196.010,108.713 196.623,108.713 197.236,108.713 197.849,108.713 198.462,108.713 199.075,108.713 199.688,108.713 200.301,108.713 200.914,108.713 201.527,108.713 202.140,108.713 202.753,108.713 203.366,108.713 203.979,108.713 204.592,108.713 205.205,108.713 205.818,108.713 206.431,108.713 207.044,108.713 207.657,108.713 208.270,108.713 208.883,108.713 209.496,108.713 210.109,108.713 210.722,108.713 211.335,108.713 211.948,108.713 212.561,148.444 213.174,148.444 213.788,148.444 214.401,148.444 215.014,148.444 215.627,148.444 216.240,148.444 216.853,148.444 217.466,148.444 218.079,148.444 218.692,148.444 219.305,148.444 219.918,148.444 220.531,148.444 221.144,148.444 221.757,148.444 222.370,148.444 222.983,148.444 223.596,148.444 224.209,148.444 224.822,148.444 225.435,148.444 226.048,148.444 226.661,148.444 227.274,148.444 227.887,148.444 228.500,148.444 229.113,148.444 229.726,148.444 230.339,148.444 230.952,148.444 231.565,148.444 232.178,148.444 232.791,148.444 233.404,148.444 234.017,148.444 234.630,148.444 235.243,148.444 235.856,148.444 236.469,148.444 237.082,148.444 237.695,148.444 238.309,148.444 238.922,148.444 239.535,148.444 240.148,148.444 240.761,148.444 241.374,148.444 241.987,148.444 242.600,148.444 243.213,148.444 243.826,148.444 244.439,148.444 245.052,148.444 245.665,148.444 246.278,148.444 246.891,148.444 247.504,148.444 248.117,148.444 248.730,148.444 249.343,148.444 249.956,148.444 250.569,148.444 251.182,148.444 251.795,148.444 252.408,148.444 253.021,148.444 253.634,148.444 254.247,148.444 254.860,148.444 255.473,148.444 256.086,148.444 256.699,148.444 257.312,148.444 257.925,148.444 258.538,148.444 259.151,148.444 259.764,148.444 260.377,148.444 260.990,148.444 261.603,148.444 262.216,148.444 262.830,148.444 263.443,148.444 264.056,148.444 264.669,148.444 265.282,148.444 265.895,148.444 266.508,148.444 267.121,148.444 267.734,148.444 268.347,148.444 268.960,148.444 269.573,148.444 270.186,148.444 270.799,148.444 271.412,148.444 272.025,148.444 272.638,148.444 273.251,148.444 273.864,148.444 274.477,148.444 275.090,148.444 275.703,148.444 276.316,148.444 276.929,148.444 277.542,148.444 278.155,108.713 278.768,108.713 279.381,108.713 279.994,108.713 280.607,108.713 281.220,108.713 281.833,108.713 282.446,108.713 283.059,108.713 283.672,108.713 284.285,108.713 284.898,108.713 285.511,108.713 286.124,108.713 286.738,108.713 287.351,108.713 287.964,108.713 288.577,108.713 289.190,108.713 289.803,108.713 290.416,108.713 291.029,108.713 291.642,108.713 292.255,108.713 292.868,108.713 293.481,108.713 294.094,108.713 294.707,108.713 295.320,108.713 295.933,108.713 296.546,108.713 297.159,108.713 297.772,108.713 298.385,108.713 298.998,108.713 299.611,108.713 300.224,108.713 300.837,108.713 301.450,108.713 302.063,108.713 302.676,108.713 303.289,108.713 303.902,108.713 304.515,108.713 305.128,108.713 305.741,108.713 306.354,108.713 306.967,108.713 307.580,108.713 308.193,108.713 308.806,108.713 309.419,108.713 310.032,108.713 310.645,108.713 311.259,108.713 311.872,108.713 312.485,108.713 313.098,108.713 313.711,108.713 314.324,108.713 314.937,108.713 315.550,108.713 316.163,108.713 316.776,108.713 317.389,108.713 318.002,108.713 318.615,108.713 319.228,108.713 319.841,108.713 320.454,108.713 321.067,108.713 321.680,108.713 322.293,148.444 322.906,148.444 323.519,148.444 324.132,148.444 324.745,148.444 325.358,148.444 325.971,148.444 326.584,148.444 327.197,148.444 327.810,148.444 328.423,148.444 329.036,148.444 329.649,148.444 330.262,148.444 330.875,148.444 331.488,148.444 332.101,148.444 332.714,148.444 333.327,148.444 333.940,148.444 334.553,148.444 335.166,148.444 335.780,148.444 336.393,148.444 337.006,148.444 337.619,148.444 338.232,148.444 338.845,148.444 339.458,148.444 340.071,148.444 340.684,148.444 341.297,148.444 341.910,148.444 342.523,148.444 343.136,148.444 343.749,108.713 344.362,108.713 344.975,108.713 345.588,108.713 346.201,108.713 346.814,108.713 347.427,108.713 348.040,108.713 348.653,108.713 349.266,108.713 349.879,108.713 350.492,108.713 351.105,108.713 351.718,108.713 352.331,108.713 352.944,108.713 353.557,108.713 354.170,108.713 354.783,108.713 355.396,108.713 356.009,108.713 356.622,108.713 357.235,108.713 357.848,108.713 358.461,108.713 359.074,108.713 359.687,108.713 360.300,108.713 360.914,108.713 361.527,108.713 362.140,108.713 362.753,108.713 363.366,108.713 363.979,108.713 364.592,108.713 365.205,108.713 365.818,148.444 366.431,148.444 367.044,148.444 367.657,148.444 368.270,148.444 368.883,148.444 369.496,148.444 370.109,148.444 370.722,148.444 371.335,148.444 371.948,148.444 372.561,148.444 373.174,148.444 373.787,148.444 374.400,148.444 375.013,148.444 375.626,148.444 376.239,148.444 376.852,148.444 377.465,148.444 378.078,148.444 378.691,148.444 379.304,148.444 379.917,148.444 380.530,148.444 381.143,148.444 381.756,148.444 382.369,148.444 382.982,148.444 383.595,148.444 384.208,148.444 384.822,148.444 385.435,148.444 386.048,148.444 386.661,148.444 387.274,148.444 387.887,148.444 388.500,148.444 389.113,148.444 389.726,148.444 390.339,148.444 390.952,148.444 391.565,148.444 392.178,148.444 392.791,148.444 393.404,148.444 394.017,148.444 394.630,148.444 395.243,148.444 395.856,148.444 396.469,148.444 397.082,148.444 397.695,148.444 398.308,148.444 398.921,148.444 399.534,148.444 400.147,148.444 400.760,148.444 401.373,148.444 401.986,148.444 402.599,148.444 403.212,148.444 403.825,148.444 404.438,148.444 405.051,148.444 405.664,148.444 406.277,148.444 406.890,148.444 407.503,148.444 408.116,148.444 408.729,148.444 409.343,148.444 409.956,148.444 410.569,148.444 411.182,148.444 411.795,148.444 412.408,148.444 413.021,148.444 413.634,148.444 414.247,148.444 414.860,148.444 415.473,148.444 416.086,148.444 416.699,148.444 417.312,148.444 417.925,148.444 418.538,148.444 419.151,148.444 419.764,148.444 420.377,148.444 420.990,148.444 421.603,148.444 422.216,148.444 422.829,148.444 423.442,148.444 424.055,148.444 424.668,148.444 425.281,148.444 425.894,148.444 426.507,148.444 427.120,148.444 427.733,148.444 428.346,148.444 428.959,148.444 429.572,148.444 430.185,148.444 430.798,148.444 431.411,108.713 432.024,108.713 432.637,108.713 433.250,108.713 433.863,108.713 434.477,108.713 435.090,108.713 435.703,108.713 436.316,108.713 436.929,108.713 437.542,108.713 438.155,108.713 438.768,108.713 439.381,108.713 439.994,108.713 440.607,108.713 441.220,108.713 441.833,108.713 442.446,108.713 443.059,108.713 443.672,108.713 444.285,108.713 444.898,108.713 445.511,108.713 446.124,108.713 446.737,108.713 447.350,108.713 447.963,108.713 448.576,108.713 449.189,108.713 449.802,108.713 450.415,108.713 451.028,108.713 451.641,108.713 452.254,108.713 452.867,108.713 453.480,108.713 454.093,108.713 454.706,108.713 455.319,108.713 455.932,108.713 456.545,108.713 457.158,108.713 457.771,108.713 458.384,108.713 458.998,108.713 459.611,108.713 460.224,108.713 460.837,108.713 461.450,108.713 462.063,108.713 462.676,108.713 463.289,108.713 463.902,108.713 464.515,108.713 465.128,108.713 465.741,108.713 466.354,108.713 466.967,108.713 467.580,108.713 468.193,108.713 468.806,108.713 469.419,108.713 470.032,108.713 470.645,108.713 471.258,108.713 471.871,108.713 472.484,108.713 473.097,108.713 473.710,108.713 474.323,108.713 474.936,108.713 475.549,148.444 476.162,148.444 476.775,148.444 477.388,148.444 478.001,148.444 478.614,148.444 479.227,148.444 479.840,148.444 480.453,148.444 481.066,148.444 481.679,148.444 482.292,148.444 482.906,148.444 483.519,148.444 484.132,148.444 484.745,148.444 485.358,148.444 485.971,148.444 486.584,148.444 487.197,148.444 487.810,148.444 488.423,148.444 489.036,148.444 489.649,148.444 490.262,148.444 490.875,148.444 491.488,148.444 492.101,148.444 492.714,148.444 493.327,148.444 493.940,148.444 494.553,148.444 495.166,148.444 495.779,148.444 496.392,148.444 497.005,108.713 497.618,108.713 498.231,108.713 498.844,108.713 499.457,108.713 500.070,108.713 500.683,108.713 501.296,108.713 501.909,108.713 502.522,108.713 503.135,108.713 503.748,108.713 504.361,108.713 504.974,108.713 505.587,108.713 506.200,108.713 506.813,108.713 507.427,108.713 508.040,108.713 508.653,108.713 509.266,108.713 509.879,108.713 510.492,108.713 511.105,108.713 511.718,108.713 512.331,108.713 512.944,108.713 513.557,108.713 514.170,108.713 514.783,108.713 515.396,108.713 516.009,108.713 516.622,108.713 517.235,108.713 517.848,108.713 518.461,108.713 519.074,148.444 519.687,148.444 520.300,148.444 520.913,148.444 521.526,148.444 522.139,148.444 522.752,148.444 523.365,148.444 523.978,148.444 524.591,148.444 525.204,148.444 525.817,148.444 526.430,148.444 527.043,148.444 527.656,148.444 528.269,148.444 528.882,148.444 529.495,148.444 530.108,148.444 530.721,148.444 531.334,148.444 531.947,148.444 532.561,148.444 533.174,148.444 533.787,148.444 534.400,148.444 535.013,148.444 535.626,148.444 536.239,148.444 536.852,148.444 537.465,148.444 538.078,148.444 538.691,148.444 539.304,148.444 539.917,148.444 540.530,148.444 541.143,148.444 541.756,148.444 542.369,148.444 542.982,148.444 543.595,148.444 544.208,148.444 544.821,148.444 545.434,148.444 546.047,148.444 546.660,148.444 547.273,148.444 547.886,148.444 548.499,148.444 549.112,148.444 549.725,148.444 550.338,148.444 550.951,148.444 551.564,148.444 552.177,148.444 552.790,148.444 553.403,148.444 554.016,148.444 554.629,148.444 555.242,148.444 555.855,148.444 556.469,148.444 557.082,148.444 557.695,148.444 558.308,148.444 558.921,148.444 559.534,148.444 560.147,148.444 560.760,148.444 561.373,148.444 561.986,148.444 562.599,148.444 563.212,148.444 563.825,148.444 564.438,148.444 565.051,148.444 565.664,148.444 566.277,148.444 566.890,148.444 567.503,148.444 568.116,148.444 568.729,148.444 569.342,148.444 569.955,148.444 570.568,148.444 571.181,148.444 571.794,148.444 572.407,148.444 573.020,148.444 573.633,148.444 574.246,148.444 574.859,148.444 575.472,148.444 576.085,148.444 576.698,148.444 577.311,148.444 577.924,148.444 578.537,148.444 579.150,148.444 579.763,148.444 580.376,148.444 580.990,148.444 581.603,148.444 582.216,148.444 582.829,148.444 583.442,148.444 584.055,148.444 584.668,108.713 585.281,108.713 585.894,108.713 586.507,108.713 587.120,108.713 587.733,108.713 588.346,108.713 588.959,108.713 589.572,108.713 590.185,108.713 590.798,108.713 591.411,108.713 592.024,108.713 592.637,108.713 593.250,108.713 593.863,108.713 594.476,108.713 595.089,108.713 595.702,108.713 596.315,108.713 596.928,108.713 597.541,108.713 598.154,108.713 598.767,108.713 599.380,108.713 599.993,108.713 600.606,108.713 601.219,108.713 601.832,108.713 602.445,108.713 603.058,108.713 603.671,108.713 604.284,108.713 604.897,108.713 605.510,108.713 606.124,108.713 606.737,108.713 607.350,108.713 607.963,108.713 608.576,108.713 609.189,108.713 609.802,108.713 610.415,108.713 611.028,108.713 611.641,108.713 612.254,108.713 612.867,108.713 613.480,108.713 614.093,108.713 614.706,108.713 615.319,108.713 615.932,108.713 616.545,108.713 617.158,108.713 617.771,108.713 618.384,108.713 618.997,108.713 619.610,108.713 620.223,108.713 620.836,108.713 621.449,108.713 622.062,108.713 622.675,108.713 623.288,108.713 623.901,108.713 624.514,108.713 625.127,108.713 625.740,108.713 626.353,108.713 626.966,108.713 627.579,108.713 628.192,108.713 628.805,148.444 629.418,148.444 630.031,148.444 630.645,148.444 631.258,148.444 631.871,148.444 632.484,148.444 633.097,148.444 633.710,148.444 634.323,148.444 634.936,148.444 635.549,148.444 636.162,148.444 636.775,148.444 637.388,148.444 638.001,148.444 638.614,148.444 639.227,148.444 639.840,148.444 640.453,148.444 641.066,148.444 641.679,148.444 642.292,148.444 642.905,148.444 643.518,148.444 644.131,148.444 644.744,148.444 645.357,148.444 645.970,148.444 646.583,148.444 647.196,148.444 647.809,148.444 648.422,148.444 649.035,148.444 649.648,148.444 650.261,108.713 650.874,108.713 651.487,108.713 652.100,108.713 652.713,108.713 653.326,108.713 653.939,108.713 654.553,108.713 655.166,108.713 655.779,108.713 656.392,108.713 657.005,108.713 657.618,108.713 658.231,108.713 658.844,108.713 659.457,108.713 660.070,108.713 660.683,108.713 661.296,108.713 661.909,108.713 662.522,108.713 663.135,108.713 663.748,108.713 664.361,108.713 664.974,108.713 665.587,108.713 666.200,108.713 666.813,108.713 667.426,108.713 668.039,108.713 668.652,108.713 669.265,108.713 669.878,108.713 670.491,108.713 671.104,108.713 671.717,108.713 672.330,148.444 672.943,148.444 673.556,148.444 674.169,148.444 674.782,148.444 675.395,148.444 676.008,148.444 676.621,148.444 677.234,148.444 677.847,148.444 678.460,148.444 679.073,148.444 679.687,148.444 680.300,148.444 680.913,148.444 681.526,148.444 682.139,148.444 682.752,148.444 683.365,148.444 683.978,148.444 684.591,148.444 685.204,148.444 685.817,148.444 686.430,148.444 687.043,148.444 687.656,148.444 688.269,148.444 688.882,148.444 689.495,148.444 690.108,148.444 690.721,148.444 691.334,148.444 691.947,148.444 692.560,148.444 693.173,148.444 693.786,148.444 694.399,148.444 695.012,148.444 695.625,148.444 696.238,148.444 696.851,148.444 697.464,148.444 698.077,148.444 698.690,148.444 699.303,148.444 699.916,148.444 700.529,148.444 701.142,148.444 701.755,148.444 702.368,148.444 702.981,148.444 703.594,148.444 704.208,148.444 704.821,148.444 705.434,148.444 706.047,148.444 706.660,148.444 707.273,148.444 707.886,148.444 708.499,148.444 709.112,148.444 709.725,148.444 710.338,148.444 710.951,148.444 711.564,148.444 712.177,148.444 712.790,148.444 713.403,148.444 714.016,148.444 714.629,148.444 715.242,148.444 715.855,148.444 "/>
<g>
</g>
</g>
<g id="ID000004" clip-path="url(#ID000001)" >
      <polyline fill="none" stroke="#000000" stroke-width="0.5pt" stroke-dasharray="none" points="102.830,188.175 103.443,184.698 104.056,181.328 104.669,178.170 105.282,175.321 105.895,172.868 106.508,170.888 107.121,169.442 107.734,168.574 108.347,168.311 108.960,168.661 109.573,169.614 110.186,171.140 110.799,173.191 111.412,175.706 112.025,178.605 112.638,181.799 113.251,185.191 113.864,188.674 114.477,192.142 115.091,195.488 115.704,198.608 116.317,201.406 116.930,203.795 117.543,205.702 118.156,207.068 118.769,207.851 119.382,208.027 119.995,207.589 120.608,206.552 121.221,204.948 121.834,202.826 122.447,200.252 123.060,197.305 123.673,194.076 124.286,190.665 124.899,187.177 125.512,183.720 126.125,180.400 126.738,177.321 127.351,174.576 127.964,172.251 128.577,170.418 129.190,169.133 129.803,168.436 130.416,168.349 131.029,168.873 131.642,169.993 132.255,171.675 132.868,173.866 133.481,176.498 134.094,179.491 134.707,182.753 135.320,186.181 135.933,189.671 136.546,193.115 137.159,196.407 137.772,199.444 138.385,202.134 138.998,204.392 139.611,206.150 140.225,207.353 140.838,207.964 141.451,207.964 142.064,207.353 142.677,206.150 143.290,204.392 143.903,202.134 144.516,199.444 145.129,196.407 145.742,193.115 146.355,189.671 146.968,186.181 147.581,182.753 148.194,179.491 148.807,176.498 149.420,173.866 150.033,171.675 150.646,169.993 151.259,168.873 151.872,168.349 152.485,168.436 153.098,169.133 153.711,170.418 154.324,172.251 154.937,174.576 155.550,177.321 156.163,180.400 156.776,183.720 157.389,187.177 158.002,190.665 158.615,194.076 159.228,197.305 159.841,200.252 160.454,202.826 161.067,204.948 161.680,206.552 162.293,207.589 162.906,208.027 163.519,207.851 164.132,207.068 164.746,205.702 165.359,203.795 165.972,201.406 166.585,198.608 167.198,195.488 167.811,192.142 168.424,188.674 169.037,185.191 169.650,181.799 170.263,178.605 170.876,175.706 171.489,173.191 172.102,171.140 172.715,169.614 173.328,168.661 173.941,168.311 174.554,168.574 175.167,169.442 175.780,170.888 176.393,172.868 177.006,175.321 177.619,178.170 178.232,181.328 178.845,184.698 179.458,188.175 180.071,191.652 180.684,195.022 181.297,198.180 181.910,201.029 182.523,203.482 183.136,205.462 183.749,206.908 184.362,207.776 184.975,208.039 185.588,207.689 186.201,206.736 186.814,205.210 187.427,203.159 188.040,200.644 188.654,197.745 189.267,194.551 189.880,191.159 190.493,187.676 191.106,184.208 191.719,180.862 192.332,177.742 192.945,174.944 193.558,172.555 194.171,170.648 194.784,169.282 195.397,168.499 196.010,168.323 196.623,168.761 197.236,169.798 197.849,171.402 198.462,173.524 199.075,176.098 199.688,179.045 200.301,182.274 200.914,185.685 201.527,189.173 202.140,192.630 202.753,195.950 203.366,199.029 203.979,201.774 204.592,204.099 205.205,205.932 205.818,207.217 206.431,207.914 207.044,208.001 207.657,207.477 208.270,206.357 208.883,204.675 209.496,202.484 210.109,199.852 210.722,196.859 211.335,193.597 211.948,190.169 212.561,186.679 213.174,183.235 213.788,179.943 214.401,176.906 215.014,174.216 215.627,171.958 216.240,170.200 216.853,168.997 217.466,168.386 218.079,168.386 218.692,168.997 219.305,170.200 219.918,171.958 220.531,174.216 221.144,176.906 221.757,179.943 222.370,183.235 222.983,186.679 223.596,190.169 224.209,193.597 224.822,196.859 225.435,199.852 226.048,202.484 226.661,204.675 227.274,206.357 227.887,207.477 228.500,208.001 229.113,207.914 229.726,207.217 230.339,205.932 230.952,204.099 231.565,201.774 232.178,199.029 232.791,195.950 233.404,192.630 234.017,189.173 234.630,185.685 235.243,182.274 235.856,179.045 236.469,176.098 237.082,173.524 237.695,171.402 238.309,169.798 238.922,168.761 239.535,168.323 240.148,168.499 240.761,169.282 241.374,170.648 241.987,172.555 242.600,174.944 243.213,177.742 243.826,180.862 244.439,184.208 245.052,187.676 245.665,191.159 246.278,194.551 246.891,197.745 247.504,200.644 248.117,203.159 248.730,205.210 249.343,206.736 249.956,207.689 250.569,208.039 251.182,207.776 251.795,206.908 252.408,205.462 253.021,203.482 253.634,201.029 254.247,198.180 254.860,195.022 255.473,191.652 256.086,188.175 256.699,191.652 257.312,195.022 257.925,198.180 258.538,201.029 259.151,203.482 259.764,205.462 260.377,206.908 260.990,207.776 261.603,208.039 262.216,207.689 262.830,206.736 263.443,205.210 264.056,203.159 264.669,200.644 265.282,197.745 265.895,194.551 266.508,191.159 267.121,187.676 267.734,184.208 268.347,180.862 268.960,177.742 269.573,174.944 270.186,172.555 270.799,170.648 271.412,169.282 272.025,168.499 272.638,168.323 273.251,168.761 273.864,169.798 274.477,171.402 275.090,173.524 275.703,176.098 276.316,179.045 276.929,182.274 277.542,185.685 278.155,189.173 278.768,192.630 279.381,195.950 279.994,199.029 280.607,201.774 281.220,204.099 281.833,205.932 282.446,207.217 283.059,207.914 283.672,208.001 284.285,207.477 284.898,206.357 285.511,204.675 286.124,202.484 286.738,199.852 287.351,196.859 287.964,193.597 288.577,190.169 289.190,186.679 289.803,183.235 290.416,179.943 291.029,176.906 291.642,174.216 292.255,171.958 292.868,170.200 293.481,168.997 294.094,168.386 294.707,168.386 295.320,168.997 295.933,170.200 296.546,171.958 297.159,174.216 297.772,176.906 298.385,179.943 298.998,183.235 299.611,186.679 300.224,190.169 300.837,193.597 301.450,196.859 302.063,199.852 302.676,202.484 303.289,204.675 303.902,206.357 304.515,207.477 305.128,208.001 305.741,207.914 306.354,207.217 306.967,205.932 307.580,204.099 308.193,201.774 308.806,199.029 309.419,195.950 310.032,192.630 310.645,189.173 311.259,185.685 311.872,182.274 312.485,179.045 313.098,176.098 313.711,173.524 314.324,171.402 314.937,169.798 315.550,168.761 316.163,168.323 316.776,168.499 317.389,169.282 318.002,170.648 318.615,172.555 319.228,174.944 319.841,177.742 320.454,180.862 321.067,184.208 321.680,187.676 322.293,191.159 322.906,194.551 323.519,197.745 324.132,200.644 324.745,203.159 325.358,205.210 325.971,206.736 326.584,207.689 327.197,208.039 327.810,207.776 328.423,206.908 329.036,205.462 329.649,203.482 330.262,201.029 330.875,198.180 331.488,195.022 332.101,191.652 332.714,188.175 333.327,184.698 333.940,181.328 334.553,178.170 335.166,175.321 335.780,172.868 336.393,170.888 337.006,169.442 337.619,168.574 338.232,168.311 338.845,168.661 339.458,169.614 340.071,171.140 340.684,173.191 341.297,175.706 341.910,178.605 342.523,181.799 343.136,185.191 343.749,188.674 344.362,192.142 344.975,195.488 345.588,198.608 346.201,201.406 346.814,203.795 347.427,205.702 348.040,207.068 348.653,207.851 349.266,208.027 349.879,207.589 350.492,206.552 351.105,204.948 351.718,202.826 352.331,200.252 352.944,197.305 353.557,194.076 354.170,190.665 354.783,187.177 355.396,183.720 356.009,180.400 356.622,177.321 357.235,174.576 357.848,172.251 358.461,170.418 359.074,169.133 359.687,168.436 360.300,168.349 360.914,168.873 361.527,169.993 362.140,171.675 362.753,173.866 363.366,176.498 363.979,179.491 364.592,182.753 365.205,186.181 365.818,189.671 366.431,193.115 367.044,196.407 367.657,199.444 368.270,202.134 368.883,204.392 369.496,206.150 370.109,207.353 370.722,207.964 371.335,207.964 371.948,207.353 372.561,206.150 373.174,204.392 373.787,202.134 374.400,199.444 375.013,196.407 375.626,193.115 376.239,189.671 376.852,186.181 377.465,182.753 378.078,179.491 378.691,176.498 379.304,173.866 379.917,171.675 380.530,169.993 381.143,168.873 381.756,168.349 382.369,168.436 382.982,169.133 383.595,170.418 384.208,172.251 384.822,174.576 385.435,177.321 386.048,180.400 386.661,183.720 387.274,187.177 387.887,190.665 388.500,194.076 389.113,197.305 389.726,200.252 390.339,202.826 390.952,204.948 391.565,206.552 392.178,207.589 392.791,208.027 393.404,207.851 394.017,207.068 394.630,205.702 395.243,203.795 395.856,201.406 396.469,198.608 397.082,195.488 397.695,192.142 398.308,188.674 398.921,185.191 399.534,181.799 400.147,178.605 400.760,175.706 401.373,173.191 401.986,171.140 402.599,169.614 403.212,168.661 403.825,168.311 404.438,168.574 405.051,169.442 405.664,170.888 406.277,172.868 406.890,175.321 407.503,178.170 408.116,181.328 408.729,184.698 409.343,188.175 409.956,184.698 410.569,181.328 411.182,178.170 411.795,175.321 412.408,172.868 413.021,170.888 413.634,169.442 414.247,168.574 414.860,168.311 415.473,168.661 416.086,169.614 416.699,171.140 417.312,173.191 417.925,175.706 418.538,178.605 419.151,181.799 419.764,185.191 420.377,188.674 420.990,192.142 421.603,195.488 422.216,198.608 422.829,201.406 423.442,203.795 424.055,205.702 424.668,207.068 425.281,207.851 425.894,208.027 426.507,207.589 427.120,206.552 427.733,204.948 428.346,202.826 428.959,200.252 429.572,197.305 430.185,194.076 430.798,190.665 431.411,187.177 432.024,183.720 432.637,180.400 433.250,177.321 433.863,174.576 434.477,172.251 435.090,170.418 435.703,169.133 436.316,168.436 436.929,168.349 437.542,168.873 438.155,169.993 438.768,171.675 439.381,173.866 439.994,176.498 440.607,179.491 441.220,182.753 441.833,186.181 442.446,189.671 443.059,193.115 443.672,196.407 444.285,199.444 444.898,202.134 445.511,204.392 446.124,206.150 446.737,207.353 447.350,207.964 447.963,207.964 448.576,207.353 449.189,206.150 449.802,204.392 450.415,202.134 451.028,199.444 451.641,196.407 452.254,193.115 452.867,189.671 453.480,186.181 454.093,182.753 454.706,179.491 455.319,176.498 455.932,173.866 456.545,171.675 457.158,169.993 457.771,168.873 458.384,168.349 458.998,168.436 459.611,169.133 460.224,170.418 460.837,172.251 461.450,174.576 462.063,177.321 462.676,180.400 463.289,183.720 463.902,187.177 464.515,190.665 465.128,194.076 465.741,197.305 466.354,200.252 466.967,202.826 467.580,204.948 468.193,206.552 468.806,207.589 469.419,208.027 470.032,207.851 470.645,207.068 471.258,205.702 471.871,203.795 472.484,201.406 473.097,198.608 473.710,195.488 474.323,192.142 474.936,188.674 475.549,185.191 476.162,181.799 476.775,178.605 477.388,175.706 478.001,173.191 478.614,171.140 479.227,169.614 479.840,168.661 480.453,168.311 481.066,168.574 481.679,169.442 482.292,170.888 482.906,172.868 483.519,175.321 484.132,178.170 484.745,181.328 485.358,184.698 485.971,188.175 486.584,191.652 487.197,195.022 487.810,198.180 488.423,201.029 489.036,203.482 489.649,205.462 490.262,206.908 490.875,207.776 491.488,208.039 492.101,207.689 492.714,206.736 493.327,205.210 493.940,203.159 494.553,200.644 495.166,197.745 495.779,194.551 496.392,191.159 497.005,187.676 497.618,184.208 498.231,180.862 498.844,177.742 499.457,174.944 500.070,172.555 500.683,170.648 501.296,169.282 501.909,168.499 502.522,168.323 503.135,168.761 503.748,169.798 504.361,171.402 504.974,173.524 505.587,176.098 506.200,179.045 506.813,182.274 507.427,185.685 508.040,189.173 508.653,192.630 509.266,195.950 509.879,199.029 510.492,201.774 511.105,204.099 511.718,205.932 512.331,207.217 512.944,207.914 513.557,208.001 514.170,207.477 514.783,206.357 515.396,204.675 516.009,202.484 516.622,199.852 517.235,196.859 517.848,193.597 518.461,190.169 519.074,186.679 519.687,183.235 520.300,179.943 520.913,176.906 521.526,174.216 522.139,171.958 522.752,170.200 523.365,168.997 523.978,168.386 524.591,168.386 525.204,168.997 525.817,170.200 526.430,171.958 527.043,174.216 527.656,176.906 528.269,179.943 528.882,183.235 529.495,186.679 530.108,190.169 530.721,193.597 531.334,196.859 531.947,199.852 532.561,202.484 533.174,204.675 533.787,206.357 534.400,207.477 535.013,208.001 535.626,207.914 536.239,207.217 536.852,205.932 537.465,204.099 538.078,201.774 538.691,199.029 539.304,195.950 539.917,192.630 540.530,189.173 541.143,185.685 541.756,182.274 542.369,179.045 542.982,176.098 543.595,173.524 544.208,171.402 544.821,169.798 545.434,168.761 546.047,168.323 546.660,168.499 547.273,169.282 547.886,170.648 548.499,172.555 549.112,174.944 549.725,177.742 550.338,180.862 550.951,184.208 551.564,187.676 552.177,191.159 552.790,194.551 553.403,197.745 554.016,200.644 554.629,203.159 555.242,205.210 555.855,206.736 556.469,207.689 557.082,208.039 557.695,207.776 558.308,206.908 558.921,205.462 559.534,203.482 560.147,201.029 560.760,198.180 561.373,195.022 561.986,191.652 562.599,188.175 563.212,191.652 563.825,195.022 564.438,198.180 565.051,201.029 565.664,203.482 566.277,205.462 566.890,206.908 567.503,207.776 568.116,208.039 568.729,207.689 569.342,206.736 569.955,205.210 570.568,203.159 571.181,200.644 571.794,197.745 572.407,194.551 573.020,191.159 573.633,187.676 574.246,184.208 574.859,180.862 575.472,177.742 576.085,174.944 576.698,172.555 577.311,170.648 577.924,169.282 578.537,168.499 579.150,168.323 579.763,168.761 580.376,169.798 580.990,171.402 581.603,173.524 582.216,176.098 582.829,179.045 583.442,182.274 584.055,185.685 584.668,189.173 585.281,192.630 585.894,195.950 586.507,199.029 587.120,201.774 587.733,204.099 588.346,205.932 588.959,207.217 589.572,207.914 590.185,208.001 590.798,207.477 591.411,206.357 592.024,204.675 592.637,202.484 593.250,199.852 593.863,196.859 594.476,193.597 595.089,190.169 595.702,186.679 596.315,183.235 596.928,179.943 597.541,176.906 598.154,174.216 598.767,171.958 599.380,170.200 599.993,168.997 600.606,168.386 601.219,168.386 601.832,168.997 602.445,170.200 603.058,171.958 603.671,174.216 604.284,176.906 604.897,179.943 605.510,183.235 606.124,186.679 606.737,190.169 607.350,193.597 607.963,196.859 608.576,199.852 609.189,202.484 609.802,204.675 610.415,206.357 611.028,207.477 611.641,208.001 612.254,207.914 612.867,207.217 613.480,205.932 614.093,204.099 614.706,201.774 615.319,199.029 615.932,195.950 616.545,192.630 617.158,189.173 617.771,185.685 618.384,182.274 618.997,179.045 619.610,176.098 620.223,173.524 620.836,171.402 621.449,169.798 622.062,168.761 622.675,168.323 623.288,168.499 623.901,169.282 624.514,170.648 625.127,172.555 625.740,174.944 626.353,177.742 626.966,180.862 627.579,184.208 628.192,187.676 628.805,191.159 629.418,194.551 630.031,197.745 630.645,200.644 631.258,203.159 631.871,205.210 632.484,206.736 633.097,207.689 633.710,208.039 634.323,207.776 634.936,206.908 635.549,205.462 636.162,203.482 636.775,201.029 637.388,198.180 638.001,195.022 638.614,191.652 639.227,188.175 639.840,184.698 640.453,181.328 641.066,178.170 641.679,175.321 642.292,172.868 642.905,170.888 643.518,169.442 644.131,168.574 644.744,168.311 645.357,168.661 645.970,169.614 646.583,171.140 647.196,173.191 647.809,175.706 648.422,178.605 649.035,181.799 649.648,185.191 650.261,188.674 650.874,192.142 651.487,195.488 652.100,198.608 652.713,201.406 653.326,203.795 653.939,205.702 654.553,207.068 655.166,207.851 655.779,208.027 656.392,207.589 657.005,206.552 657.618,204.948 658.231,202.826 658.844,200.252 659.457,197.305 660.070,194.076 660.683,190.665 661.296,187.177 661.909,183.720 662.522,180.400 663.135,177.321 663.748,174.576 664.361,172.251 664.974,170.418 665.587,169.133 666.200,168.436 666.813,168.349 667.426,168.873 668.039,169.993 668.652,171.675 669.265,173.866 669.878,176.498 670.491,179.491 671.104,182.753 671.717,186.181 672.330,189.671 672.943,193.115 673.556,196.407 674.169,199.444 674.782,202.134 675.395,204.392 676.008,206.150 676.621,207.353 677.234,207.964 677.847,207.964 678.460,207.353 679.073,206.150 679.687,204.392 680.300,202.134 680.913,199.444 681.526,196.407 682.139,193.115 682.752,189.671 683.365,186.181 683.978,182.753 684.591,179.491 685.204,176.498 685.817,173.866 686.430,171.675 687.043,169.993 687.656,168.873 688.269,168.349 688.882,168.436 689.495,169.133 690.108,170.418 690.721,172.251 691.334,174.576 691.947,177.321 692.560,180.400 693.173,183.720 693.786,187.177 694.399,190.665 695.012,194.076 695.625,197.305 696.238,200.252 696.851,202.826 697.464,204.948 698.077,206.552 698.690,207.589 699.303,208.027 699.916,207.851 700.529,207.068 701.142,205.702 701.755,203.795 702.368,201.406 702.981,198.608 703.594,195.488 704.208,192.142 704.821,188.674 705.434,185.191 706.047,181.799 706.660,178.605 707.273,175.706 707.886,173.191 708.499,171.140 709.112,169.614 709.725,168.661 710.338,168.311 710.951,168.574 711.564,169.442 712.177,170.888 712.790,172.868 713.403,175.321 714.016,178.170 714.629,181.328 715.242,184.698 715.855,188.175 "/>
<g>
</g>
</g>
<g id="ID000005" clip-path="url(#ID000001)" >
      <polyline fill="none" stroke="#000000" stroke-width="0.5pt" stroke-dasharray="none" points="102.830,247.772 103.443,244.295 104.056,240.925 104.669,237.767 105.282,234.918 105.895,232.465 106.508,230.485 107.121,229.039 107.734,228.171 108.347,227.908 108.960,228.258 109.573,229.211 110.186,230.737 110.799,232.788 111.412,235.302 112.025,238.202 112.638,241.396 113.251,244.788 113.864,248.271 114.477,251.739 115.091,255.085 115.704,258.205 116.317,261.003 116.930,263.392 117.543,265.299 118.156,266.665 118.769,267.448 119.382,267.623 119.995,267.186 120.608,266.149 121.221,264.545 121.834,262.423 122.447,259.849 123.060,256.902 123.673,253.673 124.286,250.262 124.899,246.774 125.512,243.317 126.125,239.997 126.738,236.917 127.351,234.173 127.964,231.848 128.577,230.015 129.190,228.730 129.803,228.033 130.416,227.945 131.029,228.470 131.642,229.590 132.255,231.272 132.868,233.462 133.481,236.095 134.094,239.088 134.707,242.350 135.320,245.778 135.933,249.268 136.546,252.712 137.159,256.004 137.772,259.041 138.385,261.730 138.998,263.989 139.611,265.747 140.225,266.950 140.838,267.561 141.451,267.561 142.064,266.950 142.677,265.747 143.290,263.989 143.903,261.730 144.516,259.041 145.129,256.004 145.742,252.712 146.355,249.268 146.968,245.778 147.581,242.350 148.194,239.088 148.807,236.095 149.420,233.462 150.033,231.272 150.646,229.590 151.259,228.470 151.872,227.945 152.485,228.033 153.098,228.730 153.711,230.015 154.324,231.848 154.937,234.173 155.550,236.917 156.163,239.997 156.776,243.317 157.389,246.774 158.002,250.262 158.615,253.673 159.228,256.902 159.841,259.849 160.454,262.423 161.067,264.545 161.680,266.149 162.293,267.186 162.906,267.623 163.519,267.448 164.132,266.665 164.746,265.299 165.359,263.392 165.972,261.003 166.585,258.205 167.198,255.085 167.811,251.739 168.424,248.271 169.037,244.788 169.650,241.396 170.263,238.202 170.876,235.302 171.489,232.788 172.102,230.737 172.715,229.211 173.328,228.258 173.941,227.908 174.554,228.171 175.167,229.039 175.780,230.485 176.393,232.465 177.006,234.918 177.619,237.767 178.232,240.925 178.845,244.295 179.458,247.772 180.071,251.249 180.684,254.618 181.297,257.777 181.910,260.626 182.523,263.079 183.136,265.059 183.749,266.505 184.362,267.373 184.975,267.636 185.588,267.286 186.201,266.333 186.814,264.807 187.427,262.756 188.040,260.241 188.654,257.342 189.267,254.148 189.880,250.756 190.493,247.273 191.106,243.805 191.719,240.459 192.332,237.339 192.945,234.541 193.558,232.152 194.171,230.245 194.784,228.879 195.397,228.096 196.010,227.920 196.623,228.358 197.236,229.395 197.849,230.999 198.462,233.121 199.075,235.695 199.688,238.642 200.301,241.871 200.914,245.282 201.527,248.770 202.140,252.227 202.753,255.547 203.366,258.626 203.979,261.371 204.592,263.696 205.205,265.529 205.818,266.814 206.431,267.511 207.044,267.598 207.657,267.074 208.270,265.954 208.883,264.272 209.496,262.081 210.109,259.449 210.722,256.455 211.335,253.194 211.948,249.766 212.561,246.275 213.174,242.831 213.788,239.540 214.401,236.503 215.014,233.813 215.627,231.555 216.240,229.797 216.853,228.594 217.466,227.983 218.079,227.983 218.692,228.594 219.305,229.797 219.918,231.555 220.531,233.813 221.144,236.503 221.757,239.540 222.370,242.831 222.983,246.275 223.596,249.766 224.209,253.194 224.822,256.455 225.435,259.449 226.048,262.081 226.661,264.272 227.274,265.954 227.887,267.074 228.500,267.598 229.113,267.511 229.726,266.814 230.339,265.529 230.952,263.696 231.565,261.371 232.178,258.626 232.791,255.547 233.404,252.227 234.017,248.770 234.630,245.282 235.243,241.871 235.856,238.642 236.469,235.695 237.082,233.121 237.695,230.999 238.309,229.395 238.922,228.358 239.535,227.920 240.148,228.096 240.761,228.879 241.374,230.245 241.987,232.152 242.600,234.541 243.213,237.339 243.826,240.459 244.439,243.805 245.052,247.273 245.665,250.756 246.278,254.148 246.891,257.342 247.504,260.241 248.117,262.756 248.730,264.807 249.343,266.333 249.956,267.286 250.569,267.636 251.182,267.373 251.795,266.505 252.408,265.059 253.021,263.079 253.634,260.626 254.247,257.777 254.860,254.618 255.473,251.249 256.086,247.772 256.699,244.295 257.312,240.925 257.925,237.767 258.538,234.918 259.151,232.465 259.764,230.485 260.377,229.039 260.990,228.171 261.603,227.908 262.216,228.258 262.830,229.211 263.443,230.737 264.056,232.788 264.669,235.302 265.282,238.202 265.895,241.396 266.508,244.788 267.121,248.271 267.734,251.739 268.347,255.085 268.960,258.205 269.573,261.003 270.186,263.392 270.799,265.299 271.412,266.665 272.025,267.448 272.638,267.623 273.251,267.186 273.864,266.149 274.477,264.545 275.090,262.423 275.703,259.849 276.316,256.902 276.929,253.673 277.542,250.262 278.155,246.774 278.768,243.317 279.381,239.997 279.994,236.917 280.607,234.173 281.220,231.848 281.833,230.015 282.446,228.730 283.059,228.033 283.672,227.945 284.285,228.470 284.898,229.590 285.511,231.272 286.124,233.462 286.738,236.095 287.351,239.088 287.964,242.350 288.577,245.778 289.190,249.268 289.803,252.712 290.416,256.004 291.029,259.041 291.642,261.730 292.255,263.989 292.868,265.747 293.481,266.950 294.094,267.561 294.707,267.561 295.320,266.950 295.933,265.747 296.546,263.989 297.159,261.730 297.772,259.041 298.385,256.004 298.998,252.712 299.611,249.268 300.224,245.778 300.837,242.350 301.450,239.088 302.063,236.095 302.676,233.462 303.289,231.272 303.902,229.590 304.515,228.470 305.128,227.945 305.741,228.033 306.354,228.730 306.967,230.015 307.580,231.848 308.193,234.173 308.806,236.917 309.419,239.997 310.032,243.317 310.645,246.774 311.259,250.262 311.872,253.673 312.485,256.902 313.098,259.849 313.711,262.423 314.324,264.545 314.937,266.149 315.550,267.186 316.163,267.623 316.776,267.448 317.389,266.665 318.002,265.299 318.615,263.392 319.228,261.003 319.841,258.205 320.454,255.085 321.067,251.739 321.680,248.271 322.293,244.788 322.906,241.396 323.519,238.202 324.132,235.302 324.745,232.788 325.358,230.737 325.971,229.211 326.584,228.258 327.197,227.908 327.810,228.171 328.423,229.039 329.036,230.485 329.649,232.465 330.262,234.918 330.875,237.767 331.488,240.925 332.101,244.295 332.714,247.772 333.327,251.249 333.940,254.618 334.553,257.777 335.166,260.626 335.780,263.079 336.393,265.059 337.006,266.505 337.619,267.373 338.232,267.636 338.845,267.286 339.458,266.333 340.071,264.807 340.684,262.756 341.297,260.241 341.910,257.342 342.523,254.148 343.136,250.756 343.749,247.273 344.362,243.805 344.975,240.459 345.588,237.339 346.201,234.541 346.814,232.152 347.427,230.245 348.040,228.879 348.653,228.096 349.266,227.920 349.879,228.358 350.492,229.395 351.105,230.999 351.718,233.121 352.331,235.695 352.944,238.642 353.557,241.871 354.170,245.282 354.783,248.770 355.396,252.227 356.009,255.547 356.622,258.626 357.235,261.371 357.848,263.696 358.461,265.529 359.074,266.814 359.687,267.511 360.300,267.598 360.914,267.074 361.527,265.954 362.140,264.272 362.753,262.081 363.366,259.449 363.979,256.455 364.592,253.194 365.205,249.766 365.818,246.275 366.431,242.831 367.044,239.540 367.657,236.503 368.270,233.813 368.883,231.555 369.496,229.797 370.109,228.594 370.722,227.983 371.335,227.983 371.948,228.594 372.561,229.797 373.174,231.555 373.787,233.813 374.400,236.503 375.013,239.540 375.626,242.831 376.239,246.275 376.852,249.766 377.465,253.194 378.078,256.455 378.691,259.449 379.304,262.081 379.917,264.272 380.530,265.954 381.143,267.074 381.756,267.598 382.369,267.511 382.982,266.814 383.595,265.529 384.208,263.696 384.822,261.371 385.435,258.626 386.048,255.547 386.661,252.227 387.274,248.770 387.887,245.282 388.500,241.871 389.113,238.642 389.726,235.695 390.339,233.121 390.952,230.999 391.565,229.395 392.178,228.358 392.791,227.920 393.404,228.096 394.017,228.879 394.630,230.245 395.243,232.152 395.856,234.541 396.469,237.339 397.082,240.459 397.695,243.805 398.308,247.273 398.921,250.756 399.534,254.148 400.147,257.342 400.760,260.241 401.373,262.756 401.986,264.807 402.599,266.333 403.212,267.286 403.825,267.636 404.438,267.373 405.051,266.505 405.664,265.059 406.277,263.079 406.890,260.626 407.503,257.777 408.116,254.618 408.729,251.249 409.343,247.772 409.956,244.295 410.569,240.925 411.182,237.767 411.795,234.918 412.408,232.465 413.021,230.485 413.634,229.039 414.247,228.171 414.860,227.908 415.473,228.258 416.086,229.211 416.699,230.737 417.312,232.788 417.925,235.302 418.538,238.202 419.151,241.396 419.764,244.788 420.377,248.271 420.990,251.739 421.603,255.085 422.216,258.205 422.829,261.003 423.442,263.392 424.055,265.299 424.668,266.665 425.281,267.448 425.894,267.623 426.507,267.186 427.120,266.149 427.733,264.545 428.346,262.423 428.959,259.849 429.572,256.902 430.185,253.673 430.798,250.262 431.411,246.774 432.024,243.317 432.637,239.997 433.250,236.917 433.863,234.173 434.477,231.848 435.090,230.015 435.703,228.730 436.316,228.033 436.929,227.945 437.542,228.470 438.155,229.590 438.768,231.272 439.381,233.462 439.994,236.095 440.607,239.088 441.220,242.350 441.833,245.778 442.446,249.268 443.059,252.712 443.672,256.004 444.285,259.041 444.898,261.730 445.511,263.989 446.124,265.747 446.737,266.950 447.350,267.561 447.963,267.561 448.576,266.950 449.189,265.747 449.802,263.989 450.415,261.730 451.028,259.041 451.641,256.004 452.254,252.712 452.867,249.268 453.480,245.778 454.093,242.350 454.706,239.088 455.319,236.095 455.932,233.462 456.545,231.272 457.158,229.590 457.771,228.470 458.384,227.945 458.998,228.033 459.611,228.730 460.224,230.015 460.837,231.848 461.450,234.173 462.063,236.917 462.676,239.997 463.289,243.317 463.902,246.774 464.515,250.262 465.128,253.673 465.741,256.902 466.354,259.849 466.967,262.423 467.580,264.545 468.193,266.149 468.806,267.186 469.419,267.623 470.032,267.448 470.645,266.665 471.258,265.299 471.871,263.392 472.484,261.003 473.097,258.205 473.710,255.085 474.323,251.739 474.936,248.271 475.549,244.788 476.162,241.396 476.775,238.202 477.388,235.302 478.001,232.788 478.614,230.737 479.227,229.211 479.840,228.258 480.453,227.908 481.066,228.171 481.679,229.039 482.292,230.485 482.906,232.465 483.519,234.918 484.132,237.767 484.745,240.925 485.358,244.295 485.971,247.772 486.584,251.249 487.197,254.618 487.810,257.777 488.423,260.626 489.036,263.079 489.649,265.059 490.262,266.505 490.875,267.373 491.488,267.636 492.101,267.286 492.714,266.333 493.327,264.807 493.940,262.756 494.553,260.241 495.166,257.342 495.779,254.148 496.392,250.756 497.005,247.273 497.618,243.805 498.231,240.459 498.844,237.339 499.457,234.541 500.070,232.152 500.683,230.245 501.296,228.879 501.909,228.096 502.522,227.920 503.135,228.358 503.748,229.395 504.361,230.999 504.974,233.121 505.587,235.695 506.200,238.642 506.813,241.871 507.427,245.282 508.040,248.770 508.653,252.227 509.266,255.547 509.879,258.626 510.492,261.371 511.105,263.696 511.718,265.529 512.331,266.814 512.944,267.511 513.557,267.598 514.170,267.074 514.783,265.954 515.396,264.272 516.009,262.081 516.622,259.449 517.235,256.455 517.848,253.194 518.461,249.766 519.074,246.275 519.687,242.831 520.300,239.540 520.913,236.503 521.526,233.813 522.139,231.555 522.752,229.797 523.365,228.594 523.978,227.983 524.591,227.983 525.204,228.594 525.817,229.797 526.430,231.555 527.043,233.813 527.656,236.503 528.269,239.540 528.882,242.831 529.495,246.275 530.108,249.766 530.721,253.194 531.334,256.455 531.947,259.449 532.561,262.081 533.174,264.272 533.787,265.954 534.400,267.074 535.013,267.598 535.626,267.511 536.239,266.814 536.852,265.529 537.465,263.696 538.078,261.371 538.691,258.626 539.304,255.547 539.917,252.227 540.530,248.770 541.143,245.282 541.756,241.871 542.369,238.642 542.982,235.695 543.595,233.121 544.208,230.999 544.821,229.395 545.434,228.358 546.047,227.920 546.660,228.096 547.273,228.879 547.886,230.245 548.499,232.152 549.112,234.541 549.725,237.339 550.338,240.459 550.951,243.805 551.564,247.273 552.177,250.756 552.790,254.148 553.403,257.342 554.016,260.241 554.629,262.756 555.242,264.807 555.855,266.333 556.469,267.286 557.082,267.636 557.695,267.373 558.308,266.505 558.921,265.059 559.534,263.079 560.147,260.626 560.760,257.777 561.373,254.618 561.986,251.249 562.599,247.772 563.212,244.295 563.825,240.925 564.438,237.767 565.051,234.918 565.664,232.465 566.277,230.485 566.890,229.039 567.503,228.171 568.116,227.908 568.729,228.258 569.342,229.211 569.955,230.737 570.568,232.788 571.181,235.302 571.794,238.202 572.407,241.396 573.020,244.788 573.633,248.271 574.246,251.739 574.859,255.085 575.472,258.205 576.085,261.003 576.698,263.392 577.311,265.299 577.924,266.665 578.537,267.448 579.150,267.623 579.763,267.186 580.376,266.149 580.990,264.545 581.603,262.423 582.216,259.849 582.829,256.902 583.442,253.673 584.055,250.262 584.668,246.774 585.281,243.317 585.894,239.997 586.507,236.917 587.120,234.173 587.733,231.848 588.346,230.015 588.959,228.730 589.572,228.033 590.185,227.945 590.798,228.470 591.411,229.590 592.024,231.272 592.637,233.462 593.250,236.095 593.863,239.088 594.476,242.350 595.089,245.778 595.702,249.268 596.315,252.712 596.928,256.004 597.541,259.041 598.154,261.730 598.767,263.989 599.380,265.747 599.993,266.950 600.606,267.561 601.219,267.561 601.832,266.950 602.445,265.747 603.058,263.989 603.671,261.730 604.284,259.041 604.897,256.004 605.510,252.712 606.124,249.268 606.737,245.778 607.350,242.350 607.963,239.088 608.576,236.095 609.189,233.462 609.802,231.272 610.415,229.590 611.028,228.470 611.641,227.945 612.254,228.033 612.867,228.730 613.480,230.015 614.093,231.848 614.706,234.173 615.319,236.917 615.932,239.997 616.545,243.317 617.158,246.774 617.771,250.262 618.384,253.673 618.997,256.902 619.610,259.849 620.223,262.423 620.836,264.545 621.449,266.149 622.062,267.186 622.675,267.623 623.288,267.448 623.901,266.665 624.514,265.299 625.127,263.392 625.740,261.003 626.353,258.205 626.966,255.085 627.579,251.739 628.192,248.271 628.805,244.788 629.418,241.396 630.031,238.202 630.645,235.302 631.258,232.788 631.871,230.737 632.484,229.211 633.097,228.258 633.710,227.908 634.323,228.171 634.936,229.039 635.549,230.485 636.162,232.465 636.775,234.918 637.388,237.767 638.001,240.925 638.614,244.295 639.227,247.772 639.840,251.249 640.453,254.618 641.066,257.777 641.679,260.626 642.292,263.079 642.905,265.059 643.518,266.505 644.131,267.373 644.744,267.636 645.357,267.286 645.970,266.333 646.583,264.807 647.196,262.756 647.809,260.241 648.422,257.342 649.035,254.148 649.648,250.756 650.261,247.273 650.874,243.805 651.487,240.459 652.100,237.339 652.713,234.541 653.326,232.152 653.939,230.245 654.553,228.879 655.166,228.096 655.779,227.920 656.392,228.358 657.005,229.395 657.618,230.999 658.231,233.121 658.844,235.695 659.457,238.642 660.070,241.871 660.683,245.282 661.296,248.770 661.909,252.227 662.522,255.547 663.135,258.626 663.748,261.371 664.361,263.696 664.974,265.529 665.587,266.814 666.200,267.511 666.813,267.598 667.426,267.074 668.039,265.954 668.652,264.272 669.265,262.081 669.878,259.449 670.491,256.455 671.104,253.194 671.717,249.766 672.330,246.275 672.943,242.831 673.556,239.540 674.169,236.503 674.782,233.813 675.395,231.555 676.008,229.797 676.621,228.594 677.234,227.983 677.847,227.983 678.460,228.594 679.073,229.797 679.687,231.555 680.300,233.813 680.913,236.503 681.526,239.540 682.139,242.831 682.752,246.275 683.365,249.766 683.978,253.194 684.591,256.455 685.204,259.449 685.817,262.081 686.430,264.272 687.043,265.954 687.656,267.074 688.269,267.598 688.882,267.511 689.495,266.814 690.108,265.529 690.721,263.696 691.334,261.371 691.947,258.626 692.560,255.547 693.173,252.227 693.786,248.770 694.399,245.282 695.012,241.871 695.625,238.642 696.238,235.695 696.851,233.121 697.464,230.999 698.077,229.395 698.690,228.358 699.303,227.920 699.916,228.096 700.529,228.879 701.142,230.245 701.755,232.152 702.368,234.541 702.981,237.339 703.594,240.459 704.208,243.805 704.821,247.273 705.434,250.756 706.047,254.148 706.660,257.342 707.273,260.241 707.886,262.756 708.499,264.807 709.112,266.333 709.725,267.286 710.338,267.636 710.951,267.373 711.564,266.505 712.177,265.059 712.790,263.079 713.403,260.626 714.016,257.777 714.629,254.618 715.242,251.249 715.855,247.772 "/>
<g>
</g>
</g>
<g id="ID000006" clip-path="url(#ID000001)" >
      <polyline fill="none" stroke="#000000" stroke-width="0.5pt" stroke-dasharray="none" points="103.443,287.503 104.056,287.503 104.669,287.503 105.282,287.503 105.895,287.503 106.508,287.503 107.121,287.503 107.734,287.503 108.347,287.503 108.960,287.503 109.573,287.503 110.186,287.503 110.799,287.503 111.412,287.503 112.025,287.503 112.638,287.503 113.251,287.503 113.864,287.503 114.477,287.503 115.091,287.503 115.704,287.503 116.317,287.503 116.930,287.503 117.543,287.503 118.156,287.503 118.769,287.503 119.382,287.503 119.995,287.503 120.608,287.503 121.221,287.503 121.834,287.503 122.447,287.503 123.060,287.503 123.673,287.503 124.286,287.503 124.899,287.503 125.512,287.503 126.125,287.503 126.738,287.503 127.351,287.503 127.964,287.503 128.577,287.503 129.190,287.503 129.803,287.503 130.416,287.503 131.029,287.503 131.642,287.503 132.255,287.503 132.868,287.503 133.481,287.503 134.094,287.503 134.707,287.503 135.320,287.503 135.933,287.503 136.546,287.503 137.159,287.503 137.772,287.503 138.385,287.503 138.998,287.503 139.611,287.503 140.225,287.503 140.838,287.503 141.451,287.503 142.064,287.503 142.677,287.503 143.290,287.503 143.903,287.503 144.516,287.503 145.129,287.503 145.742,287.503 146.355,287.503 146.968,287.503 147.581,287.503 148.194,287.503 148.807,287.503 149.420,287.503 150.033,287.503 150.646,287.503 151.259,287.503 151.872,287.503 152.485,287.503 153.098,287.503 153.711,287.503 154.324,287.503 154.937,287.503 155.550,287.503 156.163,287.503 156.776,287.503 157.389,287.503 158.002,287.503 158.615,287.503 159.228,287.503 159.841,287.503 160.454,287.503 161.067,287.503 161.680,287.503 162.293,287.503 162.906,287.503 163.519,287.503 164.132,287.503 164.746,287.503 165.359,287.503 165.972,287.503 166.585,287.503 167.198,287.503 167.811,287.503 168.424,287.503 169.037,287.503 169.650,287.503 170.263,287.503 170.876,287.503 171.489,287.503 172.102,287.503 172.715,287.503 173.328,287.503 173.941,287.503 174.554,287.503 175.167,287.503 175.780,287.503 176.393,287.503 177.006,287.503 177.619,287.503 178.232,287.503 178.845,287.503 179.458,287.503 180.071,287.503 180.684,287.503 181.297,287.503 181.910,287.503 182.523,287.503 183.136,287.503 183.749,287.503 184.362,287.503 184.975,287.503 185.588,287.503 186.201,287.503 186.814,287.503 187.427,287.503 188.040,287.503 188.654,287.503 189.267,287.503 189.880,287.503 190.493,287.503 191.106,287.503 191.719,287.503 192.332,287.503 192.945,287.503 193.558,287.503 194.171,287.503 194.784,287.503 195.397,287.503 196.010,287.503 196.623,287.503 197.236,287.503 197.849,287.503 198.462,287.503 199.075,287.503 199.688,287.503 200.301,287.503 200.914,287.503 201.527,287.503 202.140,287.503 202.753,287.503 203.366,287.503 203.979,287.503 204.592,287.503 205.205,287.503 205.818,287.503 206.431,287.503 207.044,287.503 207.657,287.503 208.270,287.503 208.883,287.503 209.496,287.503 210.109,287.503 210.722,287.503 211.335,287.503 211.948,287.503 212.561,287.503 213.174,287.503 213.788,287.503 214.401,287.503 215.014,287.503 215.627,287.503 216.240,287.503 216.853,287.503 217.466,287.503 218.079,287.503 218.692,287.503 219.305,287.503 219.918,287.503 220.531,287.503 221.144,287.503 221.757,287.503 222.370,287.503 222.983,287.503 223.596,287.503 224.209,287.503 224.822,287.503 225.435,287.503 226.048,287.503 226.661,287.503 227.274,287.503 227.887,287.503 228.500,287.503 229.113,287.503 229.726,287.503 230.339,287.503 230.952,287.503 231.565,287.503 232.178,287.503 232.791,287.503 233.404,287.503 234.017,287.503 234.630,287.503 235.243,287.503 235.856,287.503 236.469,287.503 237.082,287.503 237.695,287.503 238.309,287.503 238.922,287.503 239.535,287.503 240.148,287.503 240.761,287.503 241.374,287.503 241.987,287.503 242.600,287.503 243.213,287.503 243.826,287.503 244.439,287.503 245.052,287.503 245.665,287.503 246.278,287.503 246.891,287.503 247.504,287.503 248.117,287.503 248.730,287.503 249.343,287.503 249.956,287.503 250.569,287.503 251.182,287.503 251.795,287.503 252.408,287.503 253.021,287.503 253.634,287.503 254.247,287.503 254.860,287.503 255.473,287.503 256.086,327.234 256.699,327.234 257.312,327.234 257.925,327.234 258.538,327.234 259.151,327.234 259.764,327.234 260.377,327.234 260.990,327.234 261.603,327.234 262.216,327.234 262.830,327.234 263.443,327.234 264.056,327.234 264.669,327.234 265.282,327.234 265.895,327.234 266.508,327.234 267.121,327.234 267.734,327.234 268.347,327.234 268.960,327.234 269.573,327.234 270.186,327.234 270.799,327.234 271.412,327.234 272.025,327.234 272.638,327.234 273.251,327.234 273.864,327.234 274.477,327.234 275.090,327.234 275.703,327.234 276.316,327.234 276.929,327.234 277.542,327.234 278.155,327.234 278.768,327.234 279.381,327.234 279.994,327.234 280.607,327.234 281.220,327.234 281.833,327.234 282.446,327.234 283.059,327.234 283.672,327.234 284.285,327.234 284.898,327.234 285.511,327.234 286.124,327.234 286.738,327.234 287.351,327.234 287.964,327.234 288.577,327.234 289.190,327.234 289.803,327.234 290.416,327.234 291.029,327.234 291.642,327.234 292.255,327.234 292.868,327.234 293.481,327.234 294.094,327.234 294.707,327.234 295.320,327.234 295.933,327.234 296.546,327.234 297.159,327.234 297.772,327.234 298.385,327.234 298.998,327.234 299.611,327.234 300.224,327.234 300.837,327.234 301.450,327.234 302.063,327.234 302.676,327.234 303.289,327.234 303.902,327.234 304.515,327.234 305.128,327.234 305.741,327.234 306.354,327.234 306.967,327.234 307.580,327.234 308.193,327.234 308.806,327.234 309.419,327.234 310.032,327.234 310.645,327.234 311.259,327.234 311.872,327.234 312.485,327.234 313.098,327.234 313.711,327.234 314.324,327.234 314.937,327.234 315.550,327.234 316.163,327.234 316.776,327.234 317.389,327.234 318.002,327.234 318.615,327.234 319.228,327.234 319.841,327.234 320.454,327.234 321.067,327.234 321.680,327.234 322.293,327.234 322.906,327.234 323.519,327.234 324.132,327.234 324.745,327.234 325.358,327.234 325.971,327.234 326.584,327.234 327.197,327.234 327.810,327.234 328.423,327.234 329.036,327.234 329.649,327.234 330.262,327.234 330.875,327.234 331.488,327.234 332.101,327.234 332.714,327.234 333.327,327.234 333.940,327.234 334.553,327.234 335.166,327.234 335.780,327.234 336.393,327.234 337.006,327.234 337.619,327.234 338.232,327.234 338.845,327.234 339.458,327.234 340.071,327.234 340.684,327.234 341.297,327.234 341.910,327.234 342.523,327.234 343.136,327.234 343.749,327.234 344.362,327.234 344.975,327.234 345.588,327.234 346.201,327.234 346.814,327.234 347.427,327.234 348.040,327.234 348.653,327.234 349.266,327.234 349.879,327.234 350.492,327.234 351.105,327.234 351.718,327.234 352.331,327.234 352.944,327.234 353.557,327.234 354.170,327.234 354.783,327.234 355.396,327.234 356.009,327.234 356.622,327.234 357.235,327.234 357.848,327.234 358.461,327.234 359.074,327.234 359.687,327.234 360.300,327.234 360.914,327.234 361.527,327.234 362.140,327.234 362.753,327.234 363.366,327.234 363.979,327.234 364.592,327.234 365.205,327.234 365.818,327.234 366.431,327.234 367.044,327.234 367.657,327.234 368.270,327.234 368.883,327.234 369.496,327.234 370.109,327.234 370.722,327.234 371.335,327.234 371.948,327.234 372.561,327.234 373.174,327.234 373.787,327.234 374.400,327.234 375.013,327.234 375.626,327.234 376.239,327.234 376.852,327.234 377.465,327.234 378.078,327.234 378.691,327.234 379.304,327.234 379.917,327.234 380.530,327.234 381.143,327.234 381.756,327.234 382.369,327.234 382.982,327.234 383.595,327.234 384.208,327.234 384.822,327.234 385.435,327.234 386.048,327.234 386.661,327.234 387.274,327.234 387.887,327.234 388.500,327.234 389.113,327.234 389.726,327.234 390.339,327.234 390.952,327.234 391.565,327.234 392.178,327.234 392.791,327.234 393.404,327.234 394.017,327.234 394.630,327.234 395.243,327.234 395.856,327.234 396.469,327.234 397.082,327.234 397.695,327.234 398.308,327.234 398.921,327.234 399.534,327.234 400.147,327.234 400.760,327.234 401.373,327.234 401.986,327.234 402.599,327.234 403.212,327.234 403.825,327.234 404.438,327.234 405.051,327.234 405.664,327.234 406.277,327.234 406.890,327.234 407.503,327.234 408.116,327.234 408.729,327.234 409.343,287.503 409.956,287.503 410.569,287.503 411.182,287.503 411.795,287.503 412.408,287.503 413.021,287.503 413.634,287.503 414.247,287.503 414.860,287.503 415.473,287.503 416.086,287.503 416.699,287.503 417.312,287.503 417.925,287.503 418.538,287.503 419.151,287.503 419.764,287.503 420.377,287.503 420.990,287.503 421.603,287.503 422.216,287.503 422.829,287.503 423.442,287.503 424.055,287.503 424.668,287.503 425.281,287.503 425.894,287.503 426.507,287.503 427.120,287.503 427.733,287.503 428.346,287.503 428.959,287.503 429.572,287.503 430.185,287.503 430.798,287.503 431.411,287.503 432.024,287.503 432.637,287.503 433.250,287.503 433.863,287.503 434.477,287.503 435.090,287.503 435.703,287.503 436.316,287.503 436.929,287.503 437.542,287.503 438.155,287.503 438.768,287.503 439.381,287.503 439.994,287.503 440.607,287.503 441.220,287.503 441.833,287.503 442.446,287.503 443.059,287.503 443.672,287.503 444.285,287.503 444.898,287.503 445.511,287.503 446.124,287.503 446.737,287.503 447.350,287.503 447.963,287.503 448.576,287.503 449.189,287.503 449.802,287.503 450.415,287.503 451.028,287.503 451.641,287.503 452.254,287.503 452.867,287.503 453.480,287.503 454.093,287.503 454.706,287.503 455.319,287.503 455.932,287.503 456.545,287.503 457.158,287.503 457.771,287.503 458.384,287.503 458.998,287.503 459.611,287.503 460.224,287.503 460.837,287.503 461.450,287.503 462.063,287.503 462.676,287.503 463.289,287.503 463.902,287.503 464.515,287.503 465.128,287.503 465.741,287.503 466.354,287.503 466.967,287.503 467.580,287.503 468.193,287.503 468.806,287.503 469.419,287.503 470.032,287.503 470.645,287.503 471.258,287.503 471.871,287.503 472.484,287.503 473.097,287.503 473.710,287.503 474.323,287.503 474.936,287.503 475.549,287.503 476.162,287.503 476.775,287.503 477.388,287.503 478.001,287.503 478.614,287.503 479.227,287.503 479.840,287.503 480.453,287.503 481.066,287.503 481.679,287.503 482.292,287.503 482.906,287.503 483.519,287.503 484.132,287.503 484.745,287.503 485.358,287.503 485.971,287.503 486.584,287.503 487.197,287.503 487.810,287.503 488.423,287.503 489.036,287.503 489.649,287.503 490.262,287.503 490.875,287.503 491.488,287.503 492.101,287.503 492.714,287.503 493.327,287.503 493.940,287.503 494.553,287.503 495.166,287.503 495.779,287.503 496.392,287.503 497.005,287.503 497.618,287.503 498.231,287.503 498.844,287.503 499.457,287.503 500.070,287.503 500.683,287.503 501.296,287.503 501.909,287.503 502.522,287.503 503.135,287.503 503.748,287.503 504.361,287.503 504.974,287.503 505.587,287.503 506.200,287.503 506.813,287.503 507.427,287.503 508.040,287.503 508.653,287.503 509.266,287.503 509.879,287.503 510.492,287.503 511.105,287.503 511.718,287.503 512.331,287.503 512.944,287.503 513.557,287.503 514.170,287.503 514.783,287.503 515.396,287.503 516.009,287.503 516.622,287.503 517.235,287.503 517.848,287.503 518.461,287.503 519.074,287.503 519.687,287.503 520.300,287.503 520.913,287.503 521.526,287.503 522.139,287.503 522.752,287.503 523.365,287.503 523.978,287.503 524.591,287.503 525.204,287.503 525.817,287.503 526.430,287.503 527.043,287.503 527.656,287.503 528.269,287.503 528.882,287.503 529.495,287.503 530.108,287.503 530.721,287.503 531.334,287.503 531.947,287.503 532.561,287.503 533.174,287.503 533.787,287.503 534.400,287.503 535.013,287.503 535.626,287.503 536.239,287.503 536.852,287.503 537.465,287.503 538.078,287.503 538.691,287.503 539.304,287.503 539.917,287.503 540.530,287.503 541.143,287.503 541.756,287.503 542.369,287.503 542.982,287.503 543.595,287.503 544.208,287.503 544.821,287.503 545.434,287.503 546.047,287.503 546.660,287.503 547.273,287.503 547.886,287.503 548.499,287.503 549.112,287.503 549.725,287.503 550.338,287.503 550.951,287.503 551.564,287.503 552.177,287.503 552.790,287.503 553.403,287.503 554.016,287.503 554.629,287.503 555.242,287.503 555.855,287.503 556.469,287.503 557.082,287.503 557.695,287.503 558.308,287.503 558.921,287.503 559.534,287.503 560.147,287.503 560.760,287.503 561.373,287.503 561.986,287.503 562.599,327.234 563.212,327.234 563.825,327.234 564.438,327.234 565.051,327.234 565.664,327.234 566.277,327.234 566.890,327.234 567.503,327.234 568.116,327.234 568.729,327.234 569.342,327.234 569.955,327.234 570.568,327.234 571.181,327.234 571.794,327.234 572.407,327.234 573.020,327.234 573.633,327.234 574.246,327.234 574.859,327.234 575.472,327.234 576.085,327.234 576.698,327.234 577.311,327.234 577.924,327.234 578.537,327.234 579.150,327.234 579.763,327.234 580.376,327.234 580.990,327.234 581.603,327.234 582.216,327.234 582.829,327.234 583.442,327.234 584.055,327.234 584.668,327.234 585.281,327.234 585.894,327.234 586.507,327.234 587.120,327.234 587.733,327.234 588.346,327.234 588.959,327.234 589.572,327.234 590.185,327.234 590.798,327.234 591.411,327.234 592.024,327.234 592.637,327.234 593.250,327.234 593.863,327.234 594.476,327.234 595.089,327.234 595.702,327.234 596.315,327.234 596.928,327.234 597.541,327.234 598.154,327.234 598.767,327.234 599.380,327.234 599.993,327.234 600.606,327.234 601.219,327.234 601.832,327.234 602.445,327.234 603.058,327.234 603.671,327.234 604.284,327.234 604.897,327.234 605.510,327.234 606.124,327.234 606.737,327.234 607.350,327.234 607.963,327.234 608.576,327.234 609.189,327.234 609.802,327.234 610.415,327.234 611.028,327.234 611.641,327.234 612.254,327.234 612.867,327.234 613.480,327.234 614.093,327.234 614.706,327.234 615.319,327.234 615.932,327.234 616.545,327.234 617.158,327.234 617.771,327.234 618.384,327.234 618.997,327.234 619.610,327.234 620.223,327.234 620.836,327.234 621.449,327.234 622.062,327.234 622.675,327.234 623.288,327.234 623.901,327.234 624.514,327.234 625.127,327.234 625.740,327.234 626.353,327.234 626.966,327.234 627.579,327.234 628.192,327.234 628.805,327.234 629.418,327.234 630.031,327.234 630.645,327.234 631.258,327.234 631.871,327.234 632.484,327.234 633.097,327.234 633.710,327.234 634.323,327.234 634.936,327.234 635.549,327.234 636.162,327.234 636.775,327.234 637.388,327.234 638.001,327.234 638.614,327.234 639.227,327.234 639.840,327.234 640.453,327.234 641.066,327.234 641.679,327.234 642.292,327.234 642.905,327.234 643.518,327.234 644.131,327.234 644.744,327.234 645.357,327.234 645.970,327.234 646.583,327.234 647.196,327.234 647.809,327.234 648.422,327.234 649.035,327.234 649.648,327.234 650.261,327.234 650.874,327.234 651.487,327.234 652.100,327.234 652.713,327.234 653.326,327.234 653.939,327.234 654.553,327.234 655.166,327.234 655.779,327.234 656.392,327.234 657.005,327.234 657.618,327.234 658.231,327.234 658.844,327.234 659.457,327.234 660.070,327.234 660.683,327.234 661.296,327.234 661.909,327.234 662.522,327.234 663.135,327.234 663.748,327.234 664.361,327.234 664.974,327.234 665.587,327.234 666.200,327.234 666.813,327.234 667.426,327.234 668.039,327.234 668.652,327.234 669.265,327.234 669.878,327.234 670.491,327.234 671.104,327.234 671.717,327.234 672.330,327.234 672.943,327.234 673.556,327.234 674.169,327.234 674.782,327.234 675.395,327.234 676.008,327.234 676.621,327.234 677.234,327.234 677.847,327.234 678.460,327.234 679.073,327.234 679.687,327.234 680.300,327.234 680.913,327.234 681.526,327.234 682.139,327.234 682.752,327.234 683.365,327.234 683.978,327.234 684.591,327.234 685.204,327.234 685.817,327.234 686.430,327.234 687.043,327.234 687.656,327.234 688.269,327.234 688.882,327.234 689.495,327.234 690.108,327.234 690.721,327.234 691.334,327.234 691.947,327.234 692.560,327.234 693.173,327.234 693.786,327.234 694.399,327.234 695.012,327.234 695.625,327.234 696.238,327.234 696.851,327.234 697.464,327.234 698.077,327.234 698.690,327.234 699.303,327.234 699.916,327.234 700.529,327.234 701.142,327.234 701.755,327.234 702.368,327.234 702.981,327.234 703.594,327.234 704.208,327.234 704.821,327.234 705.434,327.234 706.047,327.234 706.660,327.234 707.273,327.234 707.886,327.234 708.499,327.234 709.112,327.234 709.725,327.234 710.338,327.234 710.951,327.234 711.564,327.234 712.177,327.234 712.790,327.234 713.403,327.234 714.016,327.234 714.629,327.234 715.242,327.234 715.855,307.369 "/>
<g>
</g>
</g>
<g id="ID000007" clip-path="url(#ID000001)" >
      <polyline fill="none" stroke="#0000ff" stroke-width="0.5pt" stroke-dasharray="none" points="102.830,68.981 715.855,68.981 "/>
<g>
</g>
</g>
<g id="ID000008" clip-path="url(#ID000001)" >
      <polyline fill="none" stroke="#0000ff" stroke-width="0.5pt" stroke-dasharray="none" points="102.830,128.578 715.855,128.578 "/>
<g>
</g>
</g>
<g id="ID000009" clip-path="url(#ID000001)" >
      <polyline fill="none" stroke="#0000ff" stroke-width="0.5pt" stroke-dasharray="none" points="102.830,188.175 715.855,188.175 "/>
<g>
</g>
</g>
<g id="ID000010" clip-path="url(#ID000001)" >
      <polyline fill="none" stroke="#0000ff" stroke-width="0.5pt" stroke-dasharray="none" points="102.830,247.772 715.855,247.772 "/>
<g>
</g>
</g>
<g id="ID000011" clip-path="url(#ID000001)" >
      <polyline fill="none" stroke="#0000ff" stroke-width="0.5pt" stroke-dasharray="none" points="102.830,307.369 715.855,307.369 "/>
<g>
</g>
</g>
<g id="ID000012" clip-path="url(#ID000001)" >
      <polyline fill="none" stroke="#ff0000" stroke-width="0.5pt" stroke-dasharray="none" points="256.086,347.100 256.086,29.250 "/>
<g>
</g>
</g>
<g id="ID000013" clip-path="url(#ID000001)" >
      <polyline fill="none" stroke="#ff0000" stroke-width="0.5pt" stroke-dasharray="none" points="409.343,347.100 409.343,29.250 "/>
<g>
</g>
</g>
<g id="ID000014" clip-path="url(#ID000001)" >
      <polyline fill="none" stroke="#ff0000" stroke-width="0.5pt" stroke-dasharray="none" points="562.599,347.100 562.599,29.250 "/>
<g>
</g>
</g>
<g id="ID000015" >
</g>
<g id="ID000016" >
</g>
<g id="ID000017" >
</g>
    </g>
    <g>
      <polyline fill="none" stroke="#000000" stroke-width="0.5pt" stroke-dasharray="none" points="102.830,347.100 102.830,340.970 "/>
      <polyline fill="none" stroke="#000000" stroke-width="0.5pt" stroke-dasharray="none" points="164.132,347.100 164.132,340.970 "/>
      <polyline fill="none" stroke="#000000" stroke-width="0.5pt" stroke-dasharray="none" points="225.435,347.100 225.435,340.970 "/>
      <polyline fill="none" stroke="#000000" stroke-width="0.5pt" stroke-dasharray="none" points="286.738,347.100 286.738,340.970 "/>
      <polyline fill="none" stroke="#000000" stroke-width="0.5pt" stroke-dasharray="none" points="348.040,347.100 348.040,340.970 "/>
      <polyline fill="none" stroke="#000000" stroke-width="0.5pt" stroke-dasharray="none" points="409.342,347.100 409.342,340.970 "/>
      <polyline fill="none" stroke="#000000" stroke-width="0.5pt" stroke-dasharray="none" points="470.645,347.100 470.645,340.970 "/>
      <polyline fill="none" stroke="#000000" stroke-width="0.5pt" stroke-dasharray="none" points="531.947,347.100 531.947,340.970 "/>
      <polyline fill="none" stroke="#000000" stroke-width="0.5pt" stroke-dasharray="none" points="593.250,347.100 593.250,340.970 "/>
      <polyline fill="none" stroke="#000000" stroke-width="0.5pt" stroke-dasharray="none" points="654.553,347.100 654.553,340.970 "/>
      <polyline fill="none" stroke="#000000" stroke-width="0.5pt" stroke-dasharray="none" points="715.855,347.100 715.855,340.970 "/>
      <polyline fill="none" stroke="#000000" stroke-width="0.5pt" stroke-dasharray="none" points="102.830,347.100 715.855,347.100 "/>
  <g transform="translate(102.830,365.257)">
    <g transform="rotate(-0.0)">
      <text x="0.000" y="0.000" font-family="Helvetica" text-anchor="middle" font-size="10pt" fill="#000000" >0</text>
    </g>
  </g>
  <g transform="translate(164.132,365.257)">
    <g transform="rotate(-0.0)">
      <text x="0.000" y="0.000" font-family="Helvetica" text-anchor="middle" font-size="10pt" fill="#000000" >10</text>
    </g>
  </g>
  <g transform="translate(225.435,365.257)">
    <g transform="rotate(-0.0)">
      <text x="0.000" y="0.000" font-family="Helvetica" text-anchor="middle" font-size="10pt" fill="#000000" >20</text>
    </g>
  </g>
  <g transform="translate(286.738,365.257)">
    <g transform="rotate(-0.0)">
      <text x="0.000" y="0.000" font-family="Helvetica" text-anchor="middle" font-size="10pt" fill="#000000" >30</text>
    </g>
  </g>
  <g transform="translate(348.040,365.257)">
    <g transform="rotate(-0.0)">
      <text x="0.000" y="0.000" font-family="Helvetica" text-anchor="middle" font-size="10pt" fill="#000000" >40</text>
    </g>
  </g>
  <g transform="translate(409.342,365.257)">
    <g transform="rotate(-0.0)">
      <text x="0.000" y="0.000" font-family="Helvetica" text-anchor="middle" font-size="10pt" fill="#000000" >50</text>
    </g>
  </g>
  <g transform="translate(470.645,365.257)">
    <g transform="rotate(-0.0)">
      <text x="0.000" y="0.000" font-family="Helvetica" text-anchor="middle" font-size="10pt" fill="#000000" >60</text>
    </g>
  </g>
  <g transform="translate(531.947,365.257)">
    <g transform="rotate(-0.0)">
      <text x="0.000" y="0.000" font-family="Helvetica" text-anchor="middle" font-size="10pt" fill="#000000" >70</text>
    </g>
  </g>
  <g transform="translate(593.250,365.257)">
    <g transform="rotate(-0.0)">
      <text x="0.000" y="0.000" font-family="Helvetica" text-anchor="middle" font-size="10pt" fill="#000000" >80</text>
    </g>
  </g>
  <g transform="translate(654.553,365.257)">
    <g transform="rotate(-0.0)">
      <text x="0.000" y="0.000" font-family="Helvetica" text-anchor="middle" font-size="10pt" fill="#000000" >90</text>
    </g>
  </g>
  <g transform="translate(715.855,365.257)">
    <g transform="rotate(-0.0)">
      <text x="0.000" y="0.000" font-family="Helvetica" text-anchor="middle" font-size="10pt" fill="#000000" >100</text>
    </g>
  </g>
      <polyline fill="none" stroke="#000000" stroke-width="0.5pt" stroke-dasharray="none" points="102.830,347.100 108.960,347.100 "/>
      <polyline fill="none" stroke="#000000" stroke-width="0.5pt" stroke-dasharray="none" points="102.830,307.369 108.960,307.369 "/>
      <polyline fill="none" stroke="#000000" stroke-width="0.5pt" stroke-dasharray="none" points="102.830,267.638 108.960,267.638 "/>
      <polyline fill="none" stroke="#000000" stroke-width="0.5pt" stroke-dasharray="none" points="102.830,227.906 108.960,227.906 "/>
      <polyline fill="none" stroke="#000000" stroke-width="0.5pt" stroke-dasharray="none" points="102.830,188.175 108.960,188.175 "/>
      <polyline fill="none" stroke="#000000" stroke-width="0.5pt" stroke-dasharray="none" points="102.830,148.444 108.960,148.444 "/>
      <polyline fill="none" stroke="#000000" stroke-width="0.5pt" stroke-dasharray="none" points="102.830,108.713 108.960,108.713 "/>
      <polyline fill="none" stroke="#000000" stroke-width="0.5pt" stroke-dasharray="none" points="102.830,68.981 108.960,68.981 "/>
      <polyline fill="none" stroke="#000000" stroke-width="0.5pt" stroke-dasharray="none" points="102.830,29.250 108.960,29.250 "/>
      <polyline fill="none" stroke="#000000" stroke-width="0.5pt" stroke-dasharray="none" points="102.830,347.100 102.830,29.250 "/>
  <g transform="translate(90.570,351.600)">
    <g transform="rotate(-0.0)">
      <text x="0.000" y="0.000" font-family="Helvetica" text-anchor="end" font-size="10pt" fill="#000000" >-2</text>
    </g>
  </g>
  <g transform="translate(90.570,311.869)">
    <g transform="rotate(-0.0)">
      <text x="0.000" y="0.000" font-family="Helvetica" text-anchor="end" font-size="10pt" fill="#000000" >0</text>
    </g>
  </g>
  <g transform="translate(90.570,272.138)">
    <g transform="rotate(-0.0)">
      <text x="0.000" y="0.000" font-family="Helvetica" text-anchor="end" font-size="10pt" fill="#000000" >2</text>
    </g>
  </g>
  <g transform="translate(90.570,232.406)">
    <g transform="rotate(-0.0)">
      <text x="0.000" y="0.000" font-family="Helvetica" text-anchor="end" font-size="10pt" fill="#000000" >4</text>
    </g>
  </g>
  <g transform="translate(90.570,192.675)">
    <g transform="rotate(-0.0)">
      <text x="0.000" y="0.000" font-family="Helvetica" text-anchor="end" font-size="10pt" fill="#000000" >6</text>
    </g>
  </g>
  <g transform="translate(90.570,152.944)">
    <g transform="rotate(-0.0)">
      <text x="0.000" y="0.000" font-family="Helvetica" text-anchor="end" font-size="10pt" fill="#000000" >8</text>
    </g>
  </g>
  <g transform="translate(90.570,113.213)">
    <g transform="rotate(-0.0)">
      <text x="0.000" y="0.000" font-family="Helvetica" text-anchor="end" font-size="10pt" fill="#000000" >10</text>
    </g>
  </g>
  <g transform="translate(90.570,73.481)">
    <g transform="rotate(-0.0)">
      <text x="0.000" y="0.000" font-family="Helvetica" text-anchor="end" font-size="10pt" fill="#000000" >12</text>
    </g>
  </g>
  <g transform="translate(90.570,33.750)">
    <g transform="rotate(-0.0)">
      <text x="0.000" y="0.000" font-family="Helvetica" text-anchor="end" font-size="10pt" fill="#000000" >14</text>
    </g>
  </g>
      <polyline fill="none" stroke="#000000" stroke-width="0.5pt" stroke-dasharray="none" points="102.830,347.100 102.830,343.922 "/>
      <polyline fill="none" stroke="#000000" stroke-width="0.5pt" stroke-dasharray="none" points="102.830,347.100 102.830,343.922 "/>
      <polyline fill="none" stroke="#000000" stroke-width="0.5pt" stroke-dasharray="none" points="102.830,347.100 102.830,343.922 "/>
      <polyline fill="none" stroke="#000000" stroke-width="0.5pt" stroke-dasharray="none" points="102.830,347.100 102.830,347.100 "/>
    </g>
  </g>
  </g>
</svg>
